STARTFONT 2.1
COMMENT
COMMENT Converted from OpenType font "Q:\font stuff\winfont\Nanosecond Thick BRK.ttf" by "otf2bdf 3.0".
COMMENT
FONT -FreeType-Nanosecond Thick BRK-Medium-R-Normal--84-840-72-72-P-318-ISO10646-1
SIZE 84 72 72
FONTBOUNDINGBOX 61 84 0 -12
STARTPROPERTIES 19
FOUNDRY "FreeType"
FAMILY_NAME "Nanosecond Thick BRK"
WEIGHT_NAME "Medium"
SLANT "R"
SETWIDTH_NAME "Normal"
ADD_STYLE_NAME ""
PIXEL_SIZE 84
POINT_SIZE 840
RESOLUTION_X 72
RESOLUTION_Y 72
SPACING "P"
AVERAGE_WIDTH 318
CHARSET_REGISTRY "ISO10646"
CHARSET_ENCODING "1"
FONT_ASCENT 71
FONT_DESCENT 12
COPYRIGHT "ÆNIGMA FONTS   [e-mail]  kentpw@norwich.net"
_OTF_FONTFILE "Q:\font stuff\winfont\Nanosecond Thick BRK.ttf"
_OTF_PSNAME "NanosecondThickBRK"
ENDPROPERTIES
CHARS 99
STARTCHAR 0020
ENCODING 32
SWIDTH 464 0
DWIDTH 39 0
BBX 0 0 0 0
BITMAP
ENDCHAR
STARTCHAR 0021
ENCODING 33
SWIDTH 166 0
DWIDTH 14 0
BBX 10 59 2 0
BITMAP
1E00
7F80
7F80
FFC0
FFC0
FFC0
FFC0
FFC0
FFC0
FFC0
FFC0
FFC0
FFC0
FFC0
FFC0
FFC0
FFC0
FFC0
FFC0
FFC0
FFC0
FFC0
FFC0
FFC0
FFC0
FFC0
FFC0
FFC0
FFC0
FFC0
FFC0
FFC0
FFC0
FFC0
FFC0
FFC0
FFC0
FFC0
FFC0
FFC0
FFC0
FFC0
FFC0
FFC0
7F80
3F00
1E00
0000
0000
1E00
7F80
7F80
FFC0
FFC0
FFC0
FFC0
7F80
7F80
1E00
ENDCHAR
STARTCHAR 0022
ENCODING 34
SWIDTH 309 0
DWIDTH 26 0
BBX 22 22 2 36
BITMAP
1E01E0
7F87F8
7F87F8
FFCFFC
FFCFFC
FFCFFC
FFCFFC
FFCFFC
FFCFFC
FFCFFC
FFCFFC
FFCFFC
FFCFFC
FFCFFC
FFCFFC
FFCFFC
FFCFFC
FFCFFC
FFCFFC
7F87F8
7F87F8
1E01E0
ENDCHAR
STARTCHAR 0023
ENCODING 35
SWIDTH 511 0
DWIDTH 43 0
BBX 39 59 2 0
BITMAP
001E00F000
007F83FC00
007F83FC00
00FFC7FE00
00FFC7FE00
00FFC7FE00
00FFC7FE00
00FFC7FE00
00FFC7FE00
00FFC7FE00
00FFC7FE00
00FFC7FE00
1FFFFFFFF0
7FFFFFFFFC
FFFFFFFFFC
FFFFFFFFFE
FFFFFFFFFE
FFFFFFFFFE
FFFFFFFFFE
FFFFFFFFFE
7FFFFFFFFC
1FFFFFFFF8
00FFC7FE00
00FFC7FE00
00FFC7FE00
00FFC7FE00
00FFC7FE00
00FFC7FE00
00FFC7FE00
00FFC7FE00
00FFC7FE00
00FFC7FE00
00FFC7FE00
00FFC7FE00
00FFC7FE00
00FFC7FE00
00FFC7FE00
1FFFFFFFF0
7FFFFFFFFC
FFFFFFFFFC
FFFFFFFFFE
FFFFFFFFFE
FFFFFFFFFE
FFFFFFFFFE
FFFFFFFFFE
7FFFFFFFFC
1FFFFFFFF8
00FFC7FE00
00FFC7FE00
00FFC7FE00
00FFC7FE00
00FFC7FE00
00FFC7FE00
00FFC7FE00
00FFC7FE00
00FFC7FE00
00FF87FC00
007F83FC00
001E00F000
ENDCHAR
STARTCHAR 0024
ENCODING 36
SWIDTH 464 0
DWIDTH 39 0
BBX 35 84 2 -12
BITMAP
0001E00000
0007F80000
0007F80000
000FFC0000
000FFC0000
000FFC0000
000FFC0000
000FFC0000
000FFC0000
000FFC0000
000FFC0000
000FFC0000
000FFC0000
001FFE0000
007FFFC000
01FFFFE000
03FFFFF800
07FFFFFC00
0FFFFFFE00
1FFFFFFF00
1FFFFFFF00
3FFFFFFF80
3FFF1FFF80
7FF803FFC0
7FF001FFC0
7FE000FFC0
FFE000FFE0
FFC0007FE0
FFC0007FE0
FFC0007FE0
FFC0007FE0
FFC0007FE0
FFC0003FC0
FFE0003FC0
FFE0001F80
7FF0000000
7FF8000000
7FFC000000
3FFFFC0000
3FFFFF8000
1FFFFFE000
0FFFFFF800
0FFFFFFC00
07FFFFFE00
03FFFFFF00
00FFFFFF00
003FFFFF80
0007FFFF80
000007FFC0
000003FFC0
000001FFC0
3F0000FFE0
7F80007FE0
FFC0007FE0
FFC0007FE0
FFC0007FE0
FFC0007FE0
FFC0007FE0
FFE000FFE0
FFE000FFC0
7FF001FFC0
7FF803FFC0
3FFE0FFF80
3FFFFFFF80
1FFFFFFF00
1FFFFFFE00
0FFFFFFC00
07FFFFF800
03FFFFF000
01FFFFE000
007FFF8000
000FFC0000
000FFC0000
000FFC0000
000FFC0000
000FFC0000
000FFC0000
000FFC0000
000FFC0000
000FFC0000
000FFC0000
0007F80000
0007F80000
0001E00000
ENDCHAR
STARTCHAR 0025
ENCODING 37
SWIDTH 464 0
DWIDTH 39 0
BBX 35 59 2 0
BITMAP
00FC000F00
07FF803FC0
0FFFC03FC0
1FFFE07FE0
3FFFF07FE0
7FFFF87FE0
7FFFF87FE0
FFFFF8FFE0
FFFFFCFFE0
FFFFFCFFC0
FFCFFDFFC0
FFCFFDFFC0
FFFFFFFF80
FFFFFFFF80
7FFFFFFF00
7FFFFFFF00
7FFFFFFE00
3FFFFFFE00
1FFFFFFC00
0FFFFFFC00
07FFFFF800
00FC7FF800
0000FFF000
0001FFE000
0001FFE000
0003FFC000
0003FFC000
0007FF8000
000FFF0000
000FFF0000
001FFE0000
003FFC0000
003FFC0000
007FF80000
00FFF00000
00FFF00000
01FFE00000
03FFC7E000
03FFDFF800
07FFFFFE00
07FFFFFF00
0FFFFFFF80
0FFFFFFF80
1FFFFFFFC0
1FFFFFFFC0
3FFFFFFFE0
3FFFFFFFE0
7FFFFC7FE0
7FEFFC7FE0
7FEFFFFFE0
FFEFFFFFE0
FFC7FFFFC0
FFC7FFFFC0
FFC7FFFFC0
FFC3FFFF80
FFC1FFFF00
7F80FFFE00
7F803FF800
1E000FE000
ENDCHAR
STARTCHAR 0026
ENCODING 38
SWIDTH 464 0
DWIDTH 39 0
BBX 35 84 2 -12
BITMAP
0001E00000
0007F80000
0007F80000
000FFC0000
000FFC0000
000FFC0000
000FFC0000
000FFC0000
000FFC0000
000FFC0000
000FFC0000
000FFC0000
000FFC0000
003FFE0000
00FFFFC000
01FFFFE000
07FFFFF800
0FFFFFFC00
0FFFFFFE00
1FFFFFFE00
3FFFFFFF00
3FFFFFFF80
7FFF1FFF80
7FF803FFC0
7FF001FFC0
FFE000FFC0
FFE000FFE0
FFC0007FE0
FFC0007FE0
FFC0007FE0
FFC0007FE0
FFC0007FE0
FFC0003FC0
FFC0003FC0
7FE0001F80
7FF0000000
7FF0000000
3FFC000000
3FFFE00000
1FFFF80000
0FFFF80000
0FFFFC0000
0FFFFC0000
0FFFFC0000
1FFFFC0000
3FFFF80000
3FFFF00000
7FFF800000
7FF8000000
7FF0000000
FFE0000F00
FFE0003F80
FFC0003FC0
FFC0007FE0
FFC0007FE0
FFC0007FE0
FFC0007FE0
FFC0007FE0
FFE000FFE0
7FE000FFC0
7FF001FFC0
7FFC07FFC0
3FFFBFFF80
3FFFFFFF80
1FFFFFFF00
0FFFFFFE00
0FFFFFFE00
07FFFFF800
01FFFFF000
00FFFFC000
001FFF0000
000FFC0000
000FFC0000
000FFC0000
000FFC0000
000FFC0000
000FFC0000
000FFC0000
000FFC0000
000FFC0000
000FFC0000
0007F80000
0007F80000
0001E00000
ENDCHAR
STARTCHAR 0027
ENCODING 39
SWIDTH 166 0
DWIDTH 14 0
BBX 10 22 2 37
BITMAP
1E00
7F80
7F80
FFC0
FFC0
FFC0
FFC0
FFC0
FFC0
FFC0
FFC0
FFC0
FFC0
FFC0
FFC0
FFC0
FFC0
FFC0
FFC0
7F80
7F80
1E00
ENDCHAR
STARTCHAR 0028
ENCODING 40
SWIDTH 309 0
DWIDTH 26 0
BBX 22 59 2 0
BITMAP
0007F0
003FF8
00FFFC
01FFFC
07FFFC
0FFFFC
1FFFFC
1FFFF8
3FFFF8
3FFF80
7FF800
7FF000
7FE000
FFE000
FFC000
FFC000
FFC000
FFC000
FFC000
FFC000
FFC000
FFC000
FFC000
FFC000
FFC000
FFC000
FFC000
FFC000
FFC000
FFC000
FFC000
FFC000
FFC000
FFC000
FFC000
FFC000
FFC000
FFC000
FFC000
FFC000
FFC000
FFC000
FFC000
FFC000
FFC000
FFE000
7FF000
7FF800
7FFC00
3FFFF0
3FFFF8
1FFFFC
0FFFFC
0FFFFC
07FFFC
03FFFC
00FFFC
003FF8
0007F0
ENDCHAR
STARTCHAR 0029
ENCODING 41
SWIDTH 309 0
DWIDTH 26 0
BBX 22 59 2 0
BITMAP
3F8000
7FF000
FFFC00
FFFE00
FFFF80
FFFFC0
FFFFE0
FFFFE0
7FFFF0
07FFF0
007FF8
003FF8
001FF8
001FFC
000FFC
000FFC
000FFC
000FFC
000FFC
000FFC
000FFC
000FFC
000FFC
000FFC
000FFC
000FFC
000FFC
000FFC
000FFC
000FFC
000FFC
000FFC
000FFC
000FFC
000FFC
000FFC
000FFC
000FFC
000FFC
000FFC
000FFC
000FFC
000FFC
000FFC
001FFC
001FFC
003FF8
007FF8
00FFF8
3FFFF0
7FFFF0
FFFFE0
FFFFC0
FFFFC0
FFFF80
FFFE00
FFFC00
7FF000
3F8000
ENDCHAR
STARTCHAR 002A
ENCODING 42
SWIDTH 440 0
DWIDTH 37 0
BBX 34 32 2 27
BITMAP
0001E00000
0007F80000
0007F80000
000FFC0000
000FFC0000
000FFC0000
000FFC0000
000FFC0000
000FFC0000
3F8FFC7F00
7FFFFFFF80
7FFFFFFF80
FFFFFFFFC0
FFFFFFFFC0
FFFFFFFFC0
7FFFFFFF80
7FFFFFFF80
3FFFFFFE00
07FFFFF800
00FFFFC000
00FFFFC000
00FFFFC000
01FFFFE000
03FFFFF000
03FFFFF800
07FFFFF800
07FF3FF800
07FE1FF800
07FE1FF800
07FC0FF800
03F807F000
01F003E000
ENDCHAR
STARTCHAR 002B
ENCODING 43
SWIDTH 464 0
DWIDTH 39 0
BBX 34 35 2 12
BITMAP
0001E00000
0007F80000
0007F80000
000FFC0000
000FFC0000
000FFC0000
000FFC0000
000FFC0000
000FFC0000
000FFC0000
000FFC0000
000FFC0000
000FFC0000
3FFFFFFF00
7FFFFFFF80
FFFFFFFFC0
FFFFFFFFC0
FFFFFFFFC0
FFFFFFFFC0
FFFFFFFFC0
FFFFFFFFC0
7FFFFFFF80
3FFFFFFF00
000FFC0000
000FFC0000
000FFC0000
000FFC0000
000FFC0000
000FFC0000
000FFC0000
000FFC0000
000FFC0000
0007F80000
0007F80000
0001E00000
ENDCHAR
STARTCHAR 002C
ENCODING 44
SWIDTH 166 0
DWIDTH 14 0
BBX 10 22 2 -12
BITMAP
1E00
7F80
7F80
FFC0
FFC0
FFC0
FFC0
FFC0
FFC0
FFC0
FFC0
FFC0
FFC0
FFC0
FFC0
FFC0
FFC0
FFC0
FFC0
7F80
7F80
1E00
ENDCHAR
STARTCHAR 002D
ENCODING 45
SWIDTH 464 0
DWIDTH 39 0
BBX 35 10 2 24
BITMAP
1FFFFFFF00
3FFFFFFF80
7FFFFFFFC0
FFFFFFFFC0
FFFFFFFFE0
FFFFFFFFE0
FFFFFFFFC0
7FFFFFFFC0
7FFFFFFF80
1FFFFFFF00
ENDCHAR
STARTCHAR 002E
ENCODING 46
SWIDTH 166 0
DWIDTH 14 0
BBX 10 10 2 0
BITMAP
1E00
7F80
7F80
FFC0
FFC0
FFC0
FFC0
7F80
7F80
1E00
ENDCHAR
STARTCHAR 002F
ENCODING 47
SWIDTH 464 0
DWIDTH 39 0
BBX 35 59 2 0
BITMAP
0000000F00
0000003F80
0000003FC0
0000007FC0
0000007FE0
0000007FE0
0000007FC0
000000FFC0
000000FFC0
000000FFC0
000001FFC0
000001FF80
000003FF80
000003FF00
000007FF00
000007FF00
00000FFE00
00001FFE00
00001FFC00
00003FF800
00007FF800
00007FF000
0000FFF000
0000FFE000
0001FFC000
0003FFC000
0003FF8000
0007FF0000
000FFF0000
000FFE0000
001FFC0000
003FFC0000
003FF80000
007FF00000
00FFF00000
00FFE00000
01FFE00000
03FFC00000
03FF800000
07FF800000
07FF000000
0FFE000000
0FFE000000
1FFC000000
1FFC000000
3FF8000000
3FF0000000
7FF0000000
7FE0000000
7FE0000000
7FE0000000
FFC0000000
FFC0000000
FFC0000000
FFC0000000
FFC0000000
7F80000000
7F00000000
1E00000000
ENDCHAR
STARTCHAR 0030
ENCODING 48
SWIDTH 464 0
DWIDTH 39 0
BBX 35 59 2 0
BITMAP
0007FC0000
003FFF8000
00FFFFE000
03FFFFF800
07FFFFFC00
0FFFFFFE00
0FFFFFFE00
1FFFFFFF00
3FFFFFFF80
3FFFFFFF80
7FFC07FFC0
7FF803FFC0
7FF001FFC0
FFE000FFE0
FFC000FFE0
FFC0007FE0
FFC0007FE0
FFC0007FE0
FFC0007FE0
FFC0007FE0
FFC0007FE0
FFC0007FE0
FFC0007FE0
FFC0007FE0
FFC0007FE0
FFC0007FE0
FFC0007FE0
FFC0007FE0
FFC0007FE0
FFC0007FE0
FFC0007FE0
FFC0007FE0
FFC0007FE0
FFC0007FE0
FFC0007FE0
FFC0007FE0
FFC0007FE0
FFC0007FE0
FFC0007FE0
FFC0007FE0
FFC0007FE0
FFC0007FE0
FFC0007FE0
FFC0007FE0
FFC000FFE0
FFE000FFE0
7FF001FFC0
7FF003FFC0
7FFC07FFC0
3FFFFFFF80
3FFFFFFF80
1FFFFFFF00
1FFFFFFF00
0FFFFFFE00
07FFFFFC00
03FFFFF800
00FFFFE000
003FFF8000
0007FC0000
ENDCHAR
STARTCHAR 0031
ENCODING 49
SWIDTH 166 0
DWIDTH 14 0
BBX 10 59 2 0
BITMAP
1E00
7F80
7F80
FFC0
FFC0
FFC0
FFC0
FFC0
FFC0
FFC0
FFC0
FFC0
FFC0
FFC0
FFC0
FFC0
FFC0
FFC0
FFC0
FFC0
FFC0
FFC0
FFC0
FFC0
FFC0
FFC0
FFC0
FFC0
FFC0
FFC0
FFC0
FFC0
FFC0
FFC0
FFC0
FFC0
FFC0
FFC0
FFC0
FFC0
FFC0
FFC0
FFC0
FFC0
FFC0
FFC0
FFC0
FFC0
FFC0
FFC0
FFC0
FFC0
FFC0
FFC0
FFC0
FFC0
7F80
7F80
1E00
ENDCHAR
STARTCHAR 0032
ENCODING 50
SWIDTH 464 0
DWIDTH 39 0
BBX 35 59 2 0
BITMAP
0007FC0000
003FFF8000
00FFFFE000
01FFFFF000
03FFFFF800
07FFFFFC00
0FFFFFFE00
1FFFFFFF00
3FFFFFFF80
3FFFFFFF80
7FFC07FF80
7FF801FFC0
7FF000FFC0
FFE000FFC0
FFE0007FE0
FFC0007FE0
FFC0007FE0
FFC0007FE0
FFC0007FE0
FFC0007FE0
7F80007FE0
3F0000FFC0
000000FFC0
000001FFC0
000007FF80
0007FFFF80
003FFFFF80
00FFFFFF00
01FFFFFE00
07FFFFFC00
0FFFFFFC00
0FFFFFF000
1FFFFFE000
3FFFFF8000
3FFFFC0000
7FFC000000
7FF0000000
7FE0000000
FFE0000000
FFC0000000
FFC0000000
FFC0000000
FFC0000000
FFC0000000
FFC0000000
FFC0000000
FFC0000000
FFC0000000
FFC0000000
FFFFFFFF00
FFFFFFFF80
FFFFFFFFC0
FFFFFFFFE0
7FFFFFFFE0
7FFFFFFFE0
3FFFFFFFE0
1FFFFFFFC0
0FFFFFFF80
03FFFFFF00
ENDCHAR
STARTCHAR 0033
ENCODING 51
SWIDTH 464 0
DWIDTH 39 0
BBX 35 59 2 0
BITMAP
0007FC0000
003FFF8000
00FFFFE000
01FFFFF000
07FFFFF800
07FFFFFC00
0FFFFFFE00
1FFFFFFF00
3FFFFFFF00
3FFFFFFF80
7FFE07FF80
7FF801FFC0
7FF000FFC0
FFE000FFC0
FFE0007FC0
FFC0007FE0
FFC0007FE0
FFC0007FE0
FFC0007FE0
FFC0007FE0
7F80007FE0
3F0000FFC0
000000FFC0
000001FFC0
000007FF80
0000FFFF80
0003FFFF00
0003FFFF00
0007FFFE00
0007FFFC00
0007FFFE00
0007FFFF00
0003FFFF80
0001FFFF80
00003FFFC0
000003FFC0
000001FFC0
0E0000FFE0
3F00007FE0
7F80007FE0
FFC0007FE0
FFC0007FE0
FFC0007FE0
FFC0007FE0
FFC0007FE0
FFE000FFE0
FFE000FFC0
7FF001FFC0
7FF803FFC0
7FFFBFFF80
3FFFFFFF80
1FFFFFFF00
1FFFFFFF00
0FFFFFFE00
07FFFFFC00
03FFFFF000
00FFFFE000
003FFF8000
0007FC0000
ENDCHAR
STARTCHAR 0034
ENCODING 52
SWIDTH 464 0
DWIDTH 39 0
BBX 35 59 2 0
BITMAP
1E00000F00
7F80003FC0
7F80003FC0
FFC0007FE0
FFC0007FE0
FFC0007FE0
FFC0007FE0
FFC0007FE0
FFC0007FE0
FFC0007FE0
FFC0007FE0
FFC0007FE0
FFC0007FE0
FFC0007FE0
FFC0007FE0
FFC0007FE0
FFC0007FE0
FFC0007FE0
FFC0007FE0
FFC0007FE0
FFC0007FE0
FFC0007FE0
FFC0007FE0
FFC0007FE0
FFC0007FE0
FFFFFFFFE0
FFFFFFFFE0
FFFFFFFFE0
FFFFFFFFC0
7FFFFFFFC0
7FFFFFFFC0
3FFFFFFFE0
1FFFFFFFE0
0FFFFFFFE0
03FFFFFFE0
0000007FE0
0000007FE0
0000007FE0
0000007FE0
0000007FE0
0000007FE0
0000007FE0
0000007FE0
0000007FE0
0000007FE0
0000007FE0
0000007FE0
0000007FE0
0000007FE0
0000007FE0
0000007FE0
0000007FE0
0000007FE0
0000007FE0
0000007FE0
0000007FE0
0000007FC0
0000003FC0
0000000F00
ENDCHAR
STARTCHAR 0035
ENCODING 53
SWIDTH 464 0
DWIDTH 39 0
BBX 35 59 2 0
BITMAP
03FFFFFF00
0FFFFFFFC0
1FFFFFFFC0
3FFFFFFFE0
7FFFFFFFE0
7FFFFFFFE0
FFFFFFFFE0
FFFFFFFFC0
FFFFFFFFC0
FFFFFFFF00
FFC0000000
FFC0000000
FFC0000000
FFC0000000
FFC0000000
FFC0000000
FFC0000000
FFC0000000
FFC0000000
FFC0000000
FFC0000000
FFC0000000
FFC0000000
FFC0000000
FFC0000000
FFFFFC0000
FFFFFF8000
FFFFFFE000
FFFFFFF800
7FFFFFFC00
7FFFFFFE00
3FFFFFFF00
1FFFFFFF00
0FFFFFFF80
03FFFFFFC0
00000FFFC0
000003FFC0
000001FFE0
000000FFE0
0000007FE0
0000007FE0
0000007FE0
0000007FE0
0000007FE0
0000007FE0
000000FFE0
000000FFE0
000003FFC0
00000FFFC0
1FFFFFFFC0
7FFFFFFF80
7FFFFFFF00
FFFFFFFF00
FFFFFFFE00
FFFFFFFC00
FFFFFFF800
7FFFFFE000
7FFFFF8000
1FFFFC0000
ENDCHAR
STARTCHAR 0036
ENCODING 54
SWIDTH 464 0
DWIDTH 39 0
BBX 35 59 2 0
BITMAP
0007FC0000
003FFF8000
00FFFFE000
03FFFFF000
07FFFFF800
0FFFFFFC00
0FFFFFFE00
1FFFFFFF00
3FFFFFFF80
3FFFFFFF80
7FFC0FFFC0
7FF803FFC0
7FF001FFC0
FFE000FFE0
FFC000FFE0
FFC0007FE0
FFC0007FE0
FFC0007FE0
FFC0007FE0
FFC0007FE0
FFC0003FC0
FFC0001F80
FFC0000000
FFC0000000
FFC0000000
FFFFFC0000
FFFFFF8000
FFFFFFE000
7FFFFFF800
7FFFFFFC00
7FFFFFFE00
FFFFFFFF00
FFFFFFFF00
FFFFFFFF80
FFFFFFFFC0
FFC00FFFC0
FFC003FFC0
FFC001FFE0
FFC000FFE0
FFC000FFE0
FFC0007FE0
FFC0007FE0
FFC0007FE0
FFC0007FE0
FFC0007FE0
FFC0007FE0
FFE000FFE0
7FE000FFC0
7FF001FFC0
7FFC07FFC0
3FFFFFFF80
1FFFFFFF00
1FFFFFFF00
0FFFFFFE00
07FFFFFC00
03FFFFF800
00FFFFE000
003FFF8000
0007FC0000
ENDCHAR
STARTCHAR 0037
ENCODING 55
SWIDTH 464 0
DWIDTH 39 0
BBX 35 59 2 0
BITMAP
1FFFFFF800
3FFFFFFE00
7FFFFFFF00
FFFFFFFF80
FFFFFFFF80
FFFFFFFFC0
FFFFFFFFC0
7FFFFFFFC0
7FFFFFFFE0
1FFFFFFFE0
0000007FC0
000000FFC0
000000FFC0
000000FFC0
000000FF80
000001FF80
000001FF80
000001FF80
000001FF00
000003FF00
000003FF00
000003FE00
000007FE00
000007FE00
000007FE00
00000FFC00
00000FFC00
00000FFC00
00001FF800
00001FF800
00001FF800
00001FF800
00003FF000
00003FF000
00003FF000
00007FE000
00007FE000
00007FE000
0000FFC000
0000FFC000
0000FFC000
0000FFC000
0001FF8000
0001FF8000
0001FF8000
0003FF0000
0003FF0000
0003FF0000
0003FF0000
0007FE0000
0007FE0000
0007FE0000
0007FC0000
0007FC0000
0007FC0000
0007FC0000
0007FC0000
0003F80000
0001F00000
ENDCHAR
STARTCHAR 0038
ENCODING 56
SWIDTH 464 0
DWIDTH 39 0
BBX 35 59 2 0
BITMAP
0007FC0000
003FFF8000
00FFFFE000
03FFFFF800
07FFFFFC00
0FFFFFFE00
0FFFFFFE00
1FFFFFFF00
3FFFFFFF80
3FFFFFFF80
7FFC07FFC0
7FF803FFC0
7FF001FFC0
FFE000FFE0
FFC0007FE0
FFC0007FE0
FFC0007FE0
FFC0007FE0
FFC0007FE0
FFC0007FE0
FFC000FFE0
7FE000FFC0
7FE001FFC0
7FF003FFC0
3FFC07FF80
3FFFFFFF80
1FFFFFFF00
1FFFFFFF00
0FFFFFFE00
07FFFFFC00
0FFFFFFE00
1FFFFFFF00
3FFFFFFF80
3FFFFFFF80
7FFE1FFFC0
7FF803FFC0
7FF001FFC0
FFE000FFE0
FFE000FFE0
FFC0007FE0
FFC0007FE0
FFC0007FE0
FFC0007FE0
FFC0007FE0
FFC0007FE0
FFE000FFE0
FFE000FFC0
7FF001FFC0
7FFC03FFC0
7FFFFFFF80
3FFFFFFF80
1FFFFFFF00
1FFFFFFF00
0FFFFFFE00
07FFFFFC00
03FFFFF000
00FFFFE000
003FFF8000
0007FC0000
ENDCHAR
STARTCHAR 0039
ENCODING 57
SWIDTH 464 0
DWIDTH 39 0
BBX 35 59 2 0
BITMAP
0007FC0000
003FFF8000
00FFFFE000
01FFFFF800
07FFFFFC00
0FFFFFFE00
1FFFFFFE00
1FFFFFFF00
3FFFFFFF80
3FFFFFFF80
7FFC07FFC0
7FF803FFC0
7FF001FFC0
FFE000FFE0
FFC000FFE0
FFC0007FE0
FFC0007FE0
FFC0007FE0
FFC0007FE0
FFC0007FE0
FFC0007FE0
FFE0007FE0
7FF0007FE0
7FF8007FE0
7FFE007FE0
3FFFFFFFE0
3FFFFFFFE0
1FFFFFFFE0
1FFFFFFFC0
0FFFFFFFC0
07FFFFFFC0
01FFFFFFE0
00FFFFFFE0
003FFFFFE0
0007FFFFE0
0000007FE0
0000007FE0
0000007FE0
0000007FE0
0000007FE0
0000007FE0
0000007FE0
0000007FE0
0000007FE0
0000007FE0
0000007FE0
0000007FE0
0000007FE0
0000007FE0
0000007FE0
0000007FE0
0000007FE0
0000007FE0
0000007FE0
0000007FE0
0000007FE0
0000007FC0
0000003FC0
0000000F00
ENDCHAR
STARTCHAR 003A
ENCODING 58
SWIDTH 166 0
DWIDTH 14 0
BBX 10 47 2 0
BITMAP
1E00
7F80
7F80
FFC0
FFC0
FFC0
FFC0
7F80
7F80
1E00
0000
0000
0000
0000
0000
0000
0000
0000
0000
0000
0000
0000
0000
0000
0000
0000
0000
0000
0000
0000
0000
0000
0000
0000
0000
0000
0000
1E00
7F80
7F80
FFC0
FFC0
FFC0
FFC0
7F80
7F80
1E00
ENDCHAR
STARTCHAR 003B
ENCODING 59
SWIDTH 166 0
DWIDTH 14 0
BBX 10 59 2 -12
BITMAP
1E00
7F80
7F80
FFC0
FFC0
FFC0
FFC0
7F80
7F80
1E00
0000
0000
0000
0000
0000
0000
0000
0000
0000
0000
0000
0000
0000
0000
0000
0000
0000
0000
0000
0000
0000
0000
0000
0000
0000
0000
0000
1E00
7F80
7F80
FFC0
FFC0
FFC0
FFC0
FFC0
FFC0
FFC0
FFC0
FFC0
FFC0
FFC0
FFC0
FFC0
FFC0
FFC0
FFC0
7F80
7F80
1E00
ENDCHAR
STARTCHAR 003C
ENCODING 60
SWIDTH 464 0
DWIDTH 39 0
BBX 35 35 2 12
BITMAP
0000007F00
000003FF80
00001FFFC0
00007FFFC0
0000FFFFE0
0003FFFFE0
0007FFFFC0
001FFFFFC0
003FFFFF80
007FFFFF00
00FFFFC000
03FFFE0000
07FFF80000
3FFFE00000
7FFFC00000
FFFF800000
FFFF000000
FFFC000000
FFFE000000
FFFF800000
7FFFC00000
3FFFE00000
07FFF80000
03FFFE0000
00FFFFC000
007FFFFF00
003FFFFF80
001FFFFFC0
0007FFFFC0
0003FFFFE0
0001FFFFE0
00007FFFC0
00001FFFC0
000007FF80
0000007F00
ENDCHAR
STARTCHAR 003D
ENCODING 61
SWIDTH 464 0
DWIDTH 39 0
BBX 35 27 2 16
BITMAP
1FFFFFFF00
3FFFFFFF80
7FFFFFFFC0
FFFFFFFFC0
FFFFFFFFE0
FFFFFFFFE0
FFFFFFFFC0
7FFFFFFFC0
7FFFFFFF80
1FFFFFFF00
0000000000
0000000000
0000000000
0000000000
0000000000
0000000000
0000000000
1FFFFFFF00
3FFFFFFF80
7FFFFFFFC0
FFFFFFFFC0
FFFFFFFFE0
FFFFFFFFE0
FFFFFFFFC0
7FFFFFFFC0
7FFFFFFF80
1FFFFFFF00
ENDCHAR
STARTCHAR 003E
ENCODING 62
SWIDTH 464 0
DWIDTH 39 0
BBX 35 35 2 12
BITMAP
1FC0000000
7FF8000000
7FFF000000
FFFFC00000
FFFFE00000
FFFFF80000
FFFFFC0000
7FFFFE0000
7FFFFF8000
1FFFFFC000
007FFFE000
001FFFF000
0007FFFC00
0001FFFF00
00007FFF80
00003FFFC0
00001FFFC0
000007FFE0
00001FFFC0
00003FFFC0
00007FFFC0
0001FFFF00
0007FFFC00
001FFFF000
007FFFE000
1FFFFFC000
3FFFFF8000
7FFFFE0000
FFFFFC0000
FFFFF80000
FFFFE00000
FFFF800000
7FFE000000
7FF8000000
1FC0000000
ENDCHAR
STARTCHAR 003F
ENCODING 63
SWIDTH 464 0
DWIDTH 39 0
BBX 34 59 2 0
BITMAP
000FFC0000
007FFF8000
00FFFFC000
03FFFFF000
07FFFFF800
0FFFFFFC00
1FFFFFFE00
1FFFFFFE00
3FFFFFFF00
7FFFFFFF00
7FFC0FFF80
7FF003FF80
FFE001FFC0
FFC000FFC0
FFC000FFC0
FF80007FC0
FF80007FC0
FF80007FC0
FF80007FC0
FF8000FFC0
7F0000FFC0
3E0000FFC0
000001FFC0
000003FF80
000007FF80
00003FFF00
0000FFFF00
0001FFFE00
0003FFFE00
0007FFFC00
0007FFF800
000FFFF000
000FFFC000
000FFF0000
000FFC0000
000FFC0000
000FFC0000
000FFC0000
000FFC0000
000FFC0000
000FFC0000
000FFC0000
000FFC0000
000FFC0000
000FF80000
0007F80000
0003F00000
0000000000
0000000000
0001E00000
0007F80000
0007F80000
000FFC0000
000FFC0000
000FFC0000
000FFC0000
0007F80000
0007F80000
0001E00000
ENDCHAR
STARTCHAR 0040
ENCODING 64
SWIDTH 750 0
DWIDTH 63 0
BBX 59 59 2 0
BITMAP
0007FFFFFFFC0000
003FFFFFFFFF8000
00FFFFFFFFFFE000
03FFFFFFFFFFF800
07FFFFFFFFFFFC00
0FFFFFFFFFFFFE00
1FFFFFFFFFFFFF00
1FFFFFFFFFFFFF00
3FFFFFFFFFFFFF80
7FFFFFFFFFFFFF80
7FFC00000007FFC0
7FF000000003FFC0
FFE0001FF801FFC0
FFE0003FFF00FFE0
FFC0007FFF80FFE0
FFC000FFFFC07FE0
FFC000FFFFE07FE0
FFC000FFFFF07FE0
FFC000FFFFF87FE0
FFC0007FFFF87FE0
FFC0003FFFFC7FE0
FFC0001FFFFC7FE0
FFC000001FFC7FE0
FFC000000FFC7FE0
FFC000000FFC7FE0
FFC03FFFFFFC7FE0
FFC0FFFFFFFC7FE0
FFC3FFFFFFFC7FE0
FFC3FFFFFFFC7FE0
FFC7FFFFFFF87FE0
FFCFFFFFFFFC7FE0
FFCFFFFFFFFC7FE0
FFCFFFFFFFFC7FE0
FFCFFFFFFFFC7FE0
FFCFFFFFFFFC7FE0
FFCFFC0007FC7FE0
FFCFFE0007FC7FE0
FFCFFFFFFFFFFFE0
FFC7FFFFFFFFFFE0
FFC7FFFFFFFFFFE0
FFC7FFFFFFFFFFE0
FFC3FFFFFFFFFFC0
FFC1FFFFFFFFFFC0
FFC0FFFFFFFFFF80
FFC07FFFFFFFFF00
FFE03FFFFFFFFE00
7FF007FFFF3FF800
7FF0000000000000
7FFC000000000000
3FFFFFFFFFF00000
3FFFFFFFFFFC0000
1FFFFFFFFFFE0000
0FFFFFFFFFFE0000
0FFFFFFFFFFE0000
07FFFFFFFFFE0000
03FFFFFFFFFE0000
00FFFFFFFFFE0000
003FFFFFFFFC0000
0007FFFFFFF00000
ENDCHAR
STARTCHAR 0041
ENCODING 65
SWIDTH 464 0
DWIDTH 39 0
BBX 35 59 2 0
BITMAP
0007FC0000
003FFF8000
00FFFFE000
03FFFFF800
07FFFFFC00
0FFFFFFE00
0FFFFFFE00
1FFFFFFF00
3FFFFFFF80
3FFFFFFF80
7FFC07FFC0
7FF803FFC0
7FF001FFC0
FFE000FFE0
FFC000FFE0
FFC0007FE0
FFC0007FE0
FFC0007FE0
FFC0007FE0
FFC0007FE0
FFC0007FE0
FFC0007FE0
FFC0007FE0
FFC0007FE0
FFC0007FE0
FFFFFFFFE0
FFFFFFFFE0
FFFFFFFFE0
7FFFFFFFC0
7FFFFFFFC0
7FFFFFFFC0
FFFFFFFFE0
FFFFFFFFE0
FFFFFFFFE0
FFFFFFFFE0
FFC0007FE0
FFC0007FE0
FFC0007FE0
FFC0007FE0
FFC0007FE0
FFC0007FE0
FFC0007FE0
FFC0007FE0
FFC0007FE0
FFC0007FE0
FFC0007FE0
FFC0007FE0
FFC0007FE0
FFC0007FE0
FFC0007FE0
FFC0007FE0
FFC0007FE0
FFC0007FE0
FFC0007FE0
FFC0007FE0
FFC0007FE0
7F80007FC0
7F80003FC0
1E00000F00
ENDCHAR
STARTCHAR 0042
ENCODING 66
SWIDTH 464 0
DWIDTH 39 0
BBX 35 59 2 0
BITMAP
03FFFC0000
0FFFFF8000
1FFFFFE000
3FFFFFF000
7FFFFFFC00
7FFFFFFE00
FFFFFFFF00
FFFFFFFF00
FFFFFFFF80
FFFFFFFF80
FFC00FFFC0
FFC003FFC0
FFC001FFC0
FFC000FFE0
FFC0007FE0
FFC0007FE0
FFC0007FE0
FFC0007FE0
FFC0007FE0
FFC0007FE0
FFC0007FE0
FFC000FFE0
FFC001FFC0
FFC003FFC0
FFC00FFFC0
FFFFFFFF80
FFFFFFFF80
FFFFFFFF00
7FFFFFFE00
7FFFFFFC00
7FFFFFFE00
FFFFFFFF00
FFFFFFFF80
FFFFFFFF80
FFFFFFFFC0
FFC00FFFC0
FFC003FFC0
FFC000FFE0
FFC000FFE0
FFC0007FE0
FFC0007FE0
FFC0007FE0
FFC0007FE0
FFC0007FE0
FFC0007FE0
FFC000FFE0
FFC000FFC0
FFC001FFC0
FFC007FFC0
FFFFFFFF80
FFFFFFFF80
FFFFFFFF00
FFFFFFFF00
7FFFFFFE00
7FFFFFFC00
3FFFFFF000
1FFFFFE000
0FFFFF8000
03FFFC0000
ENDCHAR
STARTCHAR 0043
ENCODING 67
SWIDTH 464 0
DWIDTH 39 0
BBX 35 59 2 0
BITMAP
0007FC0000
003FFF8000
00FFFFE000
03FFFFF000
07FFFFF800
0FFFFFFC00
0FFFFFFE00
1FFFFFFF00
3FFFFFFF80
3FFFFFFF80
7FFC0FFFC0
7FF803FFC0
7FF001FFC0
FFE000FFE0
FFC000FFE0
FFC0007FE0
FFC0007FE0
FFC0007FE0
FFC0007FE0
FFC0007FE0
FFC0003FC0
FFC0001F80
FFC0000000
FFC0000000
FFC0000000
FFC0000000
FFC0000000
FFC0000000
FFC0000000
FFC0000000
FFC0000000
FFC0000000
FFC0000000
FFC0000000
FFC0000000
FFC0000000
FFC0000000
FFC0001F80
FFC0003FC0
FFC0007FE0
FFC0007FE0
FFC0007FE0
FFC0007FE0
FFC0007FE0
FFC000FFE0
FFE000FFE0
7FF001FFC0
7FF003FFC0
7FFC07FFC0
3FFFFFFF80
3FFFFFFF80
1FFFFFFF00
1FFFFFFE00
0FFFFFFC00
07FFFFFC00
03FFFFF000
00FFFFE000
003FFF8000
0007FC0000
ENDCHAR
STARTCHAR 0044
ENCODING 68
SWIDTH 464 0
DWIDTH 39 0
BBX 35 59 2 0
BITMAP
03FFFC0000
0FFFFF8000
1FFFFFE000
3FFFFFF000
7FFFFFFC00
7FFFFFFE00
FFFFFFFF00
FFFFFFFF00
FFFFFFFF80
FFFFFFFF80
FFC00FFFC0
FFC003FFC0
FFC001FFC0
FFC000FFE0
FFC0007FE0
FFC0007FE0
FFC0007FE0
FFC0007FE0
FFC0007FE0
FFC0007FE0
FFC0007FE0
FFC0007FE0
FFC0007FE0
FFC0007FE0
FFC0007FE0
FFC0007FE0
FFC0007FE0
FFC0007FE0
FFC0007FE0
FFC0007FE0
FFC0007FE0
FFC0007FE0
FFC0007FE0
FFC0007FE0
FFC0007FE0
FFC0007FE0
FFC0007FE0
FFC0007FE0
FFC0007FE0
FFC0007FE0
FFC0007FE0
FFC0007FE0
FFC0007FE0
FFC0007FE0
FFC000FFE0
FFC000FFE0
FFC001FFC0
FFC003FFC0
FFC007FFC0
FFFFFFFF80
FFFFFFFF80
FFFFFFFF00
FFFFFFFF00
7FFFFFFE00
7FFFFFFC00
3FFFFFF800
1FFFFFE000
0FFFFF8000
03FFFC0000
ENDCHAR
STARTCHAR 0045
ENCODING 69
SWIDTH 464 0
DWIDTH 39 0
BBX 35 59 2 0
BITMAP
03FFFFFF00
0FFFFFFF80
1FFFFFFFC0
3FFFFFFFE0
7FFFFFFFE0
7FFFFFFFE0
FFFFFFFFE0
FFFFFFFFC0
FFFFFFFF80
FFFFFFFF00
FFC0000000
FFC0000000
FFC0000000
FFC0000000
FFC0000000
FFC0000000
FFC0000000
FFC0000000
FFC0000000
FFC0000000
FFC0000000
FFC0000000
FFC0000000
FFC0000000
FFC0000000
FFFFF00000
FFFFF80000
FFFFFC0000
7FFFFC0000
7FFFFC0000
7FFFFC0000
FFFFFC0000
FFFFFC0000
FFFFF80000
FFFFF00000
FFC0000000
FFC0000000
FFC0000000
FFC0000000
FFC0000000
FFC0000000
FFC0000000
FFC0000000
FFC0000000
FFC0000000
FFC0000000
FFC0000000
FFC0000000
FFC0000000
FFFFFFFF00
FFFFFFFF80
FFFFFFFFC0
FFFFFFFFE0
7FFFFFFFE0
7FFFFFFFE0
3FFFFFFFE0
1FFFFFFFC0
0FFFFFFF80
03FFFFFF00
ENDCHAR
STARTCHAR 0046
ENCODING 70
SWIDTH 464 0
DWIDTH 39 0
BBX 35 59 2 0
BITMAP
03FFFFFF00
0FFFFFFF80
1FFFFFFFC0
3FFFFFFFE0
7FFFFFFFE0
7FFFFFFFE0
FFFFFFFFE0
FFFFFFFFC0
FFFFFFFF80
FFFFFFFF00
FFC0000000
FFC0000000
FFC0000000
FFC0000000
FFC0000000
FFC0000000
FFC0000000
FFC0000000
FFC0000000
FFC0000000
FFC0000000
FFC0000000
FFC0000000
FFC0000000
FFC0000000
FFFFF00000
FFFFF80000
FFFFFC0000
7FFFFC0000
7FFFFC0000
7FFFFC0000
FFFFFC0000
FFFFFC0000
FFFFF80000
FFFFF00000
FFC0000000
FFC0000000
FFC0000000
FFC0000000
FFC0000000
FFC0000000
FFC0000000
FFC0000000
FFC0000000
FFC0000000
FFC0000000
FFC0000000
FFC0000000
FFC0000000
FFC0000000
FFC0000000
FFC0000000
FFC0000000
FFC0000000
FFC0000000
FFC0000000
7F80000000
7F80000000
1E00000000
ENDCHAR
STARTCHAR 0047
ENCODING 71
SWIDTH 464 0
DWIDTH 39 0
BBX 35 59 2 0
BITMAP
0007FC0000
003FFF8000
00FFFFE000
03FFFFF000
07FFFFF800
0FFFFFFC00
0FFFFFFE00
1FFFFFFF00
3FFFFFFF80
3FFFFFFF80
7FFC0FFFC0
7FF803FFC0
7FF001FFC0
FFE000FFE0
FFC000FFE0
FFC0007FE0
FFC0007FE0
FFC0007FE0
FFC0007FE0
FFC0007FE0
FFC0003FC0
FFC0001F80
FFC0000000
FFC0000000
FFC0000000
FFC1FFF800
FFC3FFFE00
FFC7FFFF00
FFC7FFFF80
FFC7FFFFC0
FFC7FFFFC0
FFC7FFFFE0
FFC7FFFFE0
FFC3FFFFE0
FFC1FFFFE0
FFC0007FE0
FFC0007FE0
FFC0007FE0
FFC0007FE0
FFC0007FE0
FFC0007FE0
FFC0007FE0
FFC0007FE0
FFC0007FE0
FFC0007FE0
FFE0007FE0
7FF0007FE0
7FF0007FE0
7FFC007FE0
3FFFFFFFE0
3FFFFFFFE0
1FFFFFFFE0
1FFFFFFFE0
0FFFFFFFC0
07FFFFFFC0
03FFFFFF80
00FFFFFF00
003FFFFE00
0007FFF800
ENDCHAR
STARTCHAR 0048
ENCODING 72
SWIDTH 464 0
DWIDTH 39 0
BBX 35 59 2 0
BITMAP
1E00000F00
7F80003FC0
7F80003FC0
FFC0007FE0
FFC0007FE0
FFC0007FE0
FFC0007FE0
FFC0007FE0
FFC0007FE0
FFC0007FE0
FFC0007FE0
FFC0007FE0
FFC0007FE0
FFC0007FE0
FFC0007FE0
FFC0007FE0
FFC0007FE0
FFC0007FE0
FFC0007FE0
FFC0007FE0
FFC0007FE0
FFC0007FE0
FFC0007FE0
FFC0007FE0
FFC0007FE0
FFFFFFFFE0
FFFFFFFFE0
FFFFFFFFE0
7FFFFFFFC0
7FFFFFFFC0
7FFFFFFFC0
FFFFFFFFE0
FFFFFFFFE0
FFFFFFFFE0
FFFFFFFFE0
FFC0007FE0
FFC0007FE0
FFC0007FE0
FFC0007FE0
FFC0007FE0
FFC0007FE0
FFC0007FE0
FFC0007FE0
FFC0007FE0
FFC0007FE0
FFC0007FE0
FFC0007FE0
FFC0007FE0
FFC0007FE0
FFC0007FE0
FFC0007FE0
FFC0007FE0
FFC0007FE0
FFC0007FE0
FFC0007FE0
FFC0007FE0
7F80007FC0
7F80003FC0
1E00000F00
ENDCHAR
STARTCHAR 0049
ENCODING 73
SWIDTH 464 0
DWIDTH 39 0
BBX 34 59 2 0
BITMAP
3FFF3FFF00
7FFFFFFF80
FFFFFFFFC0
FFFFFFFFC0
FFFFFFFFC0
FFFFFFFFC0
FFFFFFFFC0
FFFFFFFFC0
7FFFFFFF80
3FFFFFFF00
000FFC0000
000FFC0000
000FFC0000
000FFC0000
000FFC0000
000FFC0000
000FFC0000
000FFC0000
000FFC0000
000FFC0000
000FFC0000
000FFC0000
000FFC0000
000FFC0000
000FFC0000
000FFC0000
000FFC0000
000FFC0000
000FFC0000
000FFC0000
000FFC0000
000FFC0000
000FFC0000
000FFC0000
000FFC0000
000FFC0000
000FFC0000
000FFC0000
000FFC0000
000FFC0000
000FFC0000
000FFC0000
000FFC0000
000FFC0000
000FFC0000
000FFC0000
000FFC0000
000FFC0000
000FFC0000
3FFFFFFF00
7FFFFFFF80
FFFFFFFFC0
FFFFFFFFC0
FFFFFFFFC0
FFFFFFFFC0
FFFFFFFFC0
FFFFFFFFC0
7FFFFFFF80
3FFF3FFF00
ENDCHAR
STARTCHAR 004A
ENCODING 74
SWIDTH 464 0
DWIDTH 39 0
BBX 35 59 2 0
BITMAP
0000000F00
0000003FC0
0000003FC0
0000007FE0
0000007FE0
0000007FE0
0000007FE0
0000007FE0
0000007FE0
0000007FE0
0000007FE0
0000007FE0
0000007FE0
0000007FE0
0000007FE0
0000007FE0
0000007FE0
0000007FE0
0000007FE0
0000007FE0
0000007FE0
0000007FE0
0000007FE0
0000007FE0
0000007FE0
0000007FE0
0000007FE0
0000007FE0
0000007FE0
0000007FE0
0000007FE0
0000007FE0
0000007FE0
0000007FE0
0000007FE0
0000007FE0
0000007FE0
3F00007FE0
7F80007FE0
7F80007FE0
FFC0007FE0
FFC0007FE0
FFC0007FE0
FFC0007FE0
FFC000FFE0
7FE000FFE0
7FE001FFC0
7FF003FFC0
7FFC07FFC0
3FFFFFFF80
3FFFFFFF80
1FFFFFFF00
0FFFFFFE00
07FFFFFE00
07FFFFFC00
01FFFFF000
00FFFFE000
003FFF8000
0007FC0000
ENDCHAR
STARTCHAR 004B
ENCODING 75
SWIDTH 464 0
DWIDTH 39 0
BBX 35 59 2 0
BITMAP
1E00000F00
7F80003FC0
7F80003FC0
FFC0007FE0
FFC0007FE0
FFC0007FE0
FFC0007FE0
FFC0007FE0
FFC0007FE0
FFC0007FE0
FFC0007FE0
FFC0007FE0
FFC0007FE0
FFC0007FE0
FFC0007FE0
FFC0007FE0
FFC0007FE0
FFC0007FE0
FFC0007FE0
FFC0007FE0
FFC000FFE0
FFC000FFE0
FFC001FFC0
FFC003FFC0
FFC00FFFC0
FFFFFFFF80
FFFFFFFF80
FFFFFFFF00
7FFFFFFE00
7FFFFFFC00
7FFFFFFE00
FFFFFFFF00
FFFFFFFF80
FFFFFFFF80
FFFFFFFFC0
FFC00FFFC0
FFC003FFC0
FFC001FFE0
FFC000FFE0
FFC0007FE0
FFC0007FE0
FFC0007FE0
FFC0007FE0
FFC0007FE0
FFC0007FE0
FFC0007FE0
FFC0007FE0
FFC0007FE0
FFC0007FE0
FFC0007FE0
FFC0007FE0
FFC0007FE0
FFC0007FE0
FFC0007FE0
FFC0007FE0
FFC0007FE0
7F80007FC0
7F80003FC0
1E00000F00
ENDCHAR
STARTCHAR 004C
ENCODING 76
SWIDTH 464 0
DWIDTH 39 0
BBX 35 59 2 0
BITMAP
1E00000000
7F80000000
7F80000000
FFC0000000
FFC0000000
FFC0000000
FFC0000000
FFC0000000
FFC0000000
FFC0000000
FFC0000000
FFC0000000
FFC0000000
FFC0000000
FFC0000000
FFC0000000
FFC0000000
FFC0000000
FFC0000000
FFC0000000
FFC0000000
FFC0000000
FFC0000000
FFC0000000
FFC0000000
FFC0000000
FFC0000000
FFC0000000
FFC0000000
FFC0000000
FFC0000000
FFC0000000
FFC0000000
FFC0000000
FFC0000000
FFC0000000
FFC0000000
FFC0000000
FFC0000000
FFC0000000
FFC0000000
FFC0000000
FFC0000000
FFC0000000
FFC0000000
FFC0000000
FFC0000000
FFC0000000
FFC0000000
FFFFFFFF00
FFFFFFFF80
FFFFFFFFC0
FFFFFFFFE0
7FFFFFFFE0
7FFFFFFFE0
3FFFFFFFE0
1FFFFFFFC0
0FFFFFFF80
03FFFFFF00
ENDCHAR
STARTCHAR 004D
ENCODING 77
SWIDTH 654 0
DWIDTH 55 0
BBX 51 59 2 0
BITMAP
0007FF1FFC0000
003FFFFFFF8000
00FFFFFFFFE000
03FFFFFFFFF800
07FFFFFFFFFC00
0FFFFFFFFFFE00
0FFFFFFFFFFF00
1FFFFFFFFFFF00
3FFFFFFFFFFF80
3FFFFFFFFFFFC0
7FFC07FE07FFC0
7FF807FE01FFC0
7FF007FE00FFC0
FFE007FE00FFE0
FFC007FE007FE0
FFC007FE007FE0
FFC007FE007FE0
FFC007FE007FE0
FFC007FE007FE0
FFC007FE007FE0
FFC007FE007FE0
FFC007FE007FE0
FFC007FE007FE0
FFC007FE007FE0
FFC007FE007FE0
FFC007FE007FE0
FFC007FE007FE0
FFC007FE007FE0
FFC007FE007FE0
FFC007FE007FE0
FFC007FE007FE0
FFC007FE007FE0
FFC007FE007FE0
FFC007FE007FE0
FFC007FE007FE0
FFC007FE007FE0
FFC007FE007FE0
FFC007FE007FE0
FFC007FE007FE0
FFC007FE007FE0
FFC007FE007FE0
FFC007FE007FE0
FFC007FE007FE0
FFC007FE007FE0
FFC007FE007FE0
FFC007FE007FE0
FFC007FE007FE0
FFC007FE007FE0
FFC007FE007FE0
FFC007FE007FE0
FFC007FE007FE0
FFC007FE007FE0
FFC007FE007FE0
FFC007FE007FE0
FFC007FE007FE0
FFC007FE007FE0
7F8003FC003FC0
7F8003FC003FC0
1E0000F0000F00
ENDCHAR
STARTCHAR 004E
ENCODING 78
SWIDTH 464 0
DWIDTH 39 0
BBX 35 59 2 0
BITMAP
0007FC0000
003FFF8000
00FFFFE000
03FFFFF800
07FFFFFC00
0FFFFFFE00
0FFFFFFE00
1FFFFFFF00
3FFFFFFF80
3FFFFFFF80
7FFC07FFC0
7FF803FFC0
7FF001FFC0
FFE000FFE0
FFC000FFE0
FFC0007FE0
FFC0007FE0
FFC0007FE0
FFC0007FE0
FFC0007FE0
FFC0007FE0
FFC0007FE0
FFC0007FE0
FFC0007FE0
FFC0007FE0
FFC0007FE0
FFC0007FE0
FFC0007FE0
FFC0007FE0
FFC0007FE0
FFC0007FE0
FFC0007FE0
FFC0007FE0
FFC0007FE0
FFC0007FE0
FFC0007FE0
FFC0007FE0
FFC0007FE0
FFC0007FE0
FFC0007FE0
FFC0007FE0
FFC0007FE0
FFC0007FE0
FFC0007FE0
FFC0007FE0
FFC0007FE0
FFC0007FE0
FFC0007FE0
FFC0007FE0
FFC0007FE0
FFC0007FE0
FFC0007FE0
FFC0007FE0
FFC0007FE0
FFC0007FE0
FFC0007FE0
7F80003FC0
7F80003FC0
1E00000F00
ENDCHAR
STARTCHAR 004F
ENCODING 79
SWIDTH 464 0
DWIDTH 39 0
BBX 35 59 2 0
BITMAP
0007FC0000
003FFF8000
00FFFFE000
03FFFFF800
07FFFFFC00
0FFFFFFE00
0FFFFFFE00
1FFFFFFF00
3FFFFFFF80
3FFFFFFF80
7FFC07FFC0
7FF803FFC0
7FF001FFC0
FFE000FFE0
FFC000FFE0
FFC0007FE0
FFC0007FE0
FFC0007FE0
FFC0007FE0
FFC0007FE0
FFC0007FE0
FFC0007FE0
FFC0007FE0
FFC0007FE0
FFC0007FE0
FFC0007FE0
FFC0007FE0
FFC0007FE0
FFC0007FE0
FFC0007FE0
FFC0007FE0
FFC0007FE0
FFC0007FE0
FFC0007FE0
FFC0007FE0
FFC0007FE0
FFC0007FE0
FFC0007FE0
FFC0007FE0
FFC0007FE0
FFC0007FE0
FFC0007FE0
FFC0007FE0
FFC0007FE0
FFC000FFE0
FFE000FFE0
7FF001FFC0
7FF003FFC0
7FFC07FFC0
3FFFFFFF80
3FFFFFFF80
1FFFFFFF00
1FFFFFFF00
0FFFFFFE00
07FFFFFC00
03FFFFF800
00FFFFE000
003FFF8000
0007FC0000
ENDCHAR
STARTCHAR 0050
ENCODING 80
SWIDTH 464 0
DWIDTH 39 0
BBX 35 59 2 0
BITMAP
03FFFC0000
0FFFFF8000
1FFFFFE000
3FFFFFF000
7FFFFFFC00
7FFFFFFE00
FFFFFFFF00
FFFFFFFF00
FFFFFFFF80
FFFFFFFF80
FFC00FFFC0
FFC003FFC0
FFC001FFC0
FFC000FFE0
FFC0007FE0
FFC0007FE0
FFC0007FE0
FFC0007FE0
FFC0007FE0
FFC0007FE0
FFC0007FE0
FFC000FFE0
FFC001FFC0
FFC003FFC0
FFC00FFFC0
FFFFFFFF80
FFFFFFFF80
FFFFFFFF00
7FFFFFFF00
7FFFFFFE00
7FFFFFFC00
FFFFFFF000
FFFFFFE000
FFFFFF8000
FFFFFC0000
FFC0000000
FFC0000000
FFC0000000
FFC0000000
FFC0000000
FFC0000000
FFC0000000
FFC0000000
FFC0000000
FFC0000000
FFC0000000
FFC0000000
FFC0000000
FFC0000000
FFC0000000
FFC0000000
FFC0000000
FFC0000000
FFC0000000
FFC0000000
FFC0000000
7F80000000
7F80000000
1E00000000
ENDCHAR
STARTCHAR 0051
ENCODING 81
SWIDTH 464 0
DWIDTH 39 0
BBX 35 58 2 1
BITMAP
0007FC0000
003FFF8000
00FFFFE000
03FFFFF800
07FFFFFC00
0FFFFFFE00
0FFFFFFF00
1FFFFFFF00
3FFFFFFF80
3FFFFFFF80
7FFC0FFFC0
7FF803FFC0
7FF001FFC0
FFE000FFE0
FFE000FFE0
FFC0007FE0
FFC0007FE0
FFC0007FE0
FFC0007FE0
FFC0007FE0
FFC0007FE0
FFC0007FE0
FFC0007FE0
FFC0007FE0
FFC0007FE0
FFC0007FE0
FFC0007FE0
FFC0007FE0
FFC0007FE0
FFC0007FE0
FFC0007FE0
FFC0007FE0
FFC0007FE0
FFC0007FE0
FFC0007FE0
FFC0007FE0
FFC0007FE0
FFC0007FE0
FFC3F07FE0
FFC7F87FE0
FFCFFC7FE0
FFCFFC7FE0
FFCFFC7FE0
FFCFFC7FE0
FFCFFC7FE0
FFCFFCFFE0
7FEFFCFFC0
7FEFFDFFC0
7FFFFFFFC0
3FFFFFFF80
1FFFFFFF80
1FFFFFFF00
0FFFFFFE00
07FFFFFC00
03FFFFF800
01FFFFF000
007FFFE000
001FBF0000
ENDCHAR
STARTCHAR 0052
ENCODING 82
SWIDTH 464 0
DWIDTH 39 0
BBX 35 59 2 0
BITMAP
03FFFC0000
0FFFFF8000
1FFFFFE000
3FFFFFF000
7FFFFFFC00
7FFFFFFE00
FFFFFFFF00
FFFFFFFF00
FFFFFFFF80
FFFFFFFF80
FFC00FFFC0
FFC003FFC0
FFC001FFC0
FFC000FFE0
FFC0007FE0
FFC0007FE0
FFC0007FE0
FFC0007FE0
FFC0007FE0
FFC0007FE0
FFC0007FE0
FFC000FFE0
FFC001FFC0
FFC003FFC0
FFC00FFFC0
FFFFFFFF80
FFFFFFFF80
FFFFFFFF00
7FFFFFFE00
7FFFFFFC00
7FFFFFFE00
FFFFFFFF00
FFFFFFFF80
FFFFFFFF80
FFFFFFFFC0
FFC00FFFC0
FFC003FFC0
FFC001FFE0
FFC000FFE0
FFC0007FE0
FFC0007FE0
FFC0007FE0
FFC0007FE0
FFC0007FE0
FFC0007FE0
FFC0007FE0
FFC0007FE0
FFC0007FE0
FFC0007FE0
FFC0007FE0
FFC0007FE0
FFC0007FE0
FFC0007FE0
FFC0007FE0
FFC0007FE0
FFC0007FE0
7F80007FC0
7F80003FC0
1E00000F00
ENDCHAR
STARTCHAR 0053
ENCODING 83
SWIDTH 464 0
DWIDTH 39 0
BBX 35 59 2 0
BITMAP
0007FC0000
003FFF8000
00FFFFE000
01FFFFF000
07FFFFF800
0FFFFFFC00
0FFFFFFE00
1FFFFFFF00
3FFFFFFF80
3FFFFFFF80
7FFC0FFFC0
7FF803FFC0
7FF001FFC0
FFE000FFE0
FFC000FFE0
FFC0007FE0
FFC0007FE0
FFC0007FE0
FFC0007FE0
FFC0007FE0
FFC0003FC0
FFE0001F80
7FF0000000
7FF8000000
7FFC000000
3FFFFC0000
3FFFFF8000
1FFFFFE000
0FFFFFF800
0FFFFFFC00
07FFFFFE00
03FFFFFF00
00FFFFFF00
003FFFFF80
0007FFFF80
000007FFC0
000001FFC0
3F0000FFC0
7F8000FFE0
FFC0007FE0
FFC0007FE0
FFC0007FE0
FFC0007FE0
FFC0007FE0
FFC0007FE0
FFE000FFE0
7FF000FFC0
7FF801FFC0
7FFC07FFC0
3FFFFFFF80
3FFFFFFF80
1FFFFFFF00
0FFFFFFF00
07FFFFFE00
07FFFFFC00
01FFFFF800
00FFFFE000
003FFF8000
0007FC0000
ENDCHAR
STARTCHAR 0054
ENCODING 84
SWIDTH 464 0
DWIDTH 39 0
BBX 34 59 2 0
BITMAP
3FFF3FFF00
7FFFFFFF80
FFFFFFFFC0
FFFFFFFFC0
FFFFFFFFC0
FFFFFFFFC0
FFFFFFFFC0
FFFFFFFFC0
7FFFFFFF80
3FFFFFFF00
000FFC0000
000FFC0000
000FFC0000
000FFC0000
000FFC0000
000FFC0000
000FFC0000
000FFC0000
000FFC0000
000FFC0000
000FFC0000
000FFC0000
000FFC0000
000FFC0000
000FFC0000
000FFC0000
000FFC0000
000FFC0000
000FFC0000
000FFC0000
000FFC0000
000FFC0000
000FFC0000
000FFC0000
000FFC0000
000FFC0000
000FFC0000
000FFC0000
000FFC0000
000FFC0000
000FFC0000
000FFC0000
000FFC0000
000FFC0000
000FFC0000
000FFC0000
000FFC0000
000FFC0000
000FFC0000
000FFC0000
000FFC0000
000FFC0000
000FFC0000
000FFC0000
000FFC0000
000FFC0000
0007F80000
0007F80000
0001E00000
ENDCHAR
STARTCHAR 0055
ENCODING 85
SWIDTH 464 0
DWIDTH 39 0
BBX 35 59 2 0
BITMAP
1E00000F00
7F80003FC0
7F80003FC0
FFC0007FE0
FFC0007FE0
FFC0007FE0
FFC0007FE0
FFC0007FE0
FFC0007FE0
FFC0007FE0
FFC0007FE0
FFC0007FE0
FFC0007FE0
FFC0007FE0
FFC0007FE0
FFC0007FE0
FFC0007FE0
FFC0007FE0
FFC0007FE0
FFC0007FE0
FFC0007FE0
FFC0007FE0
FFC0007FE0
FFC0007FE0
FFC0007FE0
FFC0007FE0
FFC0007FE0
FFC0007FE0
FFC0007FE0
FFC0007FE0
FFC0007FE0
FFC0007FE0
FFC0007FE0
FFC0007FE0
FFC0007FE0
FFC0007FE0
FFC0007FE0
FFC0007FE0
FFC0007FE0
FFC0007FE0
FFC0007FE0
FFC0007FE0
FFC0007FE0
FFC0007FE0
FFC000FFE0
FFE000FFE0
7FF001FFC0
7FF003FFC0
7FFC07FFC0
3FFFFFFF80
3FFFFFFF80
1FFFFFFF00
1FFFFFFF00
0FFFFFFE00
07FFFFFC00
03FFFFF800
00FFFFE000
003FFF8000
0007FC0000
ENDCHAR
STARTCHAR 0056
ENCODING 86
SWIDTH 464 0
DWIDTH 39 0
BBX 35 59 2 0
BITMAP
1E00000F00
7F80003FC0
7F80003FC0
FFC0007FE0
FFC0007FE0
FFC0007FE0
FFC0007FE0
FFC0007FE0
FFC0007FE0
FFC0007FE0
FFC0007FE0
FFC0007FE0
FFC0007FE0
FFC0007FE0
FFC0007FE0
FFC0007FE0
FFC0007FE0
FFC0007FE0
FFC0007FE0
FFC0007FE0
FFC0007FE0
FFC0007FE0
FFC0007FE0
FFC0007FE0
FFC0007FE0
FFC0007FE0
FFC0007FE0
FFC0007FE0
FFC0007FE0
FFC0007FE0
FFC0007FE0
FFC0007FE0
FFC0007FE0
FFC0007FE0
FFC0007FE0
FFC0007FE0
FFE000FFC0
7FE000FFC0
7FE000FFC0
7FE000FFC0
7FF001FFC0
3FF001FF80
3FF803FF80
3FFC07FF80
1FFC0FFF00
1FFF1FFF00
0FFFBFFE00
0FFFFFFE00
07FFFFFC00
03FFFFF800
01FFFFF000
00FFFFE000
007FFFC000
003FFF8000
001FFF0000
0007FC0000
0007FC0000
0003F80000
0001F00000
ENDCHAR
STARTCHAR 0057
ENCODING 87
SWIDTH 654 0
DWIDTH 55 0
BBX 51 59 2 0
BITMAP
1E0000F0000F00
7F8003FC003FC0
7F8003FC003FC0
FFC007FE007FE0
FFC007FE007FE0
FFC007FE007FE0
FFC007FE007FE0
FFC007FE007FE0
FFC007FE007FE0
FFC007FE007FE0
FFC007FE007FE0
FFC007FE007FE0
FFC007FE007FE0
FFC007FE007FE0
FFC007FE007FE0
FFC007FE007FE0
FFC007FE007FE0
FFC007FE007FE0
FFC007FE007FE0
FFC007FE007FE0
FFC007FE007FE0
FFC007FE007FE0
FFC007FE007FE0
FFC007FE007FE0
FFC007FE007FE0
FFC007FE007FE0
FFC007FE007FE0
FFC007FE007FE0
FFC007FE007FE0
FFC007FE007FE0
FFC007FE007FE0
FFC007FE007FE0
FFC007FE007FE0
FFC007FE007FE0
FFC007FE007FE0
FFC007FE007FE0
FFC007FE007FE0
FFC007FE007FE0
FFC007FE007FE0
FFC007FE007FE0
FFC007FE007FE0
FFC007FE007FE0
FFC007FE007FE0
FFC007FE007FE0
FFC007FE007FE0
FFE007FE00FFE0
7FF007FE00FFE0
7FF807FE01FFC0
7FFC07FE07FFC0
3FFFFFFFFFFFC0
3FFFFFFFFFFF80
1FFFFFFFFFFF00
1FFFFFFFFFFF00
0FFFFFFFFFFE00
07FFFFFFFFFC00
03FFFFFFFFF800
00FFFFFFFFE000
003FFFFFFF8000
0007FF3FFC0000
ENDCHAR
STARTCHAR 0058
ENCODING 88
SWIDTH 464 0
DWIDTH 39 0
BBX 35 59 2 0
BITMAP
1E00000F00
7F80003FC0
7F80003FC0
FFC0007FE0
FFC0007FE0
FFC0007FE0
FFC0007FE0
FFC0007FE0
FFC0007FE0
FFC0007FE0
FFC0007FE0
FFC0007FE0
FFC0007FE0
FFC0007FE0
FFC0007FE0
FFC0007FE0
FFC0007FE0
FFC0007FE0
FFC0007FE0
FFC0007FE0
FFE000FFE0
7FE000FFC0
7FF001FFC0
7FF803FFC0
3FFC07FF80
3FFFFFFF80
1FFFFFFF00
1FFFFFFF00
0FFFFFFE00
07FFFFFC00
0FFFFFFE00
1FFFFFFF00
1FFFFFFF00
3FFFFFFF80
3FFFFFFF80
7FFC07FFC0
7FF803FFC0
7FF001FFC0
FFE000FFE0
FFC0007FE0
FFC0007FE0
FFC0007FE0
FFC0007FE0
FFC0007FE0
FFC0007FE0
FFC0007FE0
FFC0007FE0
FFC0007FE0
FFC0007FE0
FFC0007FE0
FFC0007FE0
FFC0007FE0
FFC0007FE0
FFC0007FE0
FFC0007FE0
FFC0007FE0
7F80007FC0
7F80003FC0
1E00000F00
ENDCHAR
STARTCHAR 0059
ENCODING 89
SWIDTH 464 0
DWIDTH 39 0
BBX 35 59 2 0
BITMAP
1E00000F00
7F80003FC0
7F80003FC0
FFC0007FE0
FFC0007FE0
FFC0007FE0
FFC0007FE0
FFC0007FE0
FFC0007FE0
FFC0007FE0
FFC0007FE0
FFC0007FE0
FFC0007FE0
FFC0007FE0
FFC0007FE0
FFC0007FE0
FFC0007FE0
FFC0007FE0
FFC0007FE0
FFC0007FE0
FFE000FFE0
7FE000FFC0
7FF001FFC0
7FF803FFC0
3FFE0FFF80
3FFFFFFF80
1FFFFFFF00
1FFFFFFF00
0FFFFFFE00
07FFFFFC00
03FFFFF800
01FFFFE000
007FFFC000
001FFE0000
000FFC0000
000FFC0000
000FFC0000
000FFC0000
000FFC0000
000FFC0000
000FFC0000
000FFC0000
000FFC0000
000FFC0000
000FFC0000
000FFC0000
000FFC0000
000FFC0000
000FFC0000
000FFC0000
000FFC0000
000FFC0000
000FFC0000
000FFC0000
000FFC0000
000FFC0000
0007F80000
0007F80000
0001E00000
ENDCHAR
STARTCHAR 005A
ENCODING 90
SWIDTH 464 0
DWIDTH 39 0
BBX 35 59 2 0
BITMAP
1FFFFFF800
3FFFFFFE00
7FFFFFFF00
FFFFFFFF80
FFFFFFFF80
FFFFFFFFC0
FFFFFFFFC0
7FFFFFFFC0
7FFFFFFFE0
1FFFFFFFC0
000000FFC0
000000FFC0
000001FFC0
000003FF80
000003FF80
000007FF00
00000FFE00
00000FFE00
00001FFC00
00003FFC00
00003FF800
00007FF000
0000FFF000
0000FFE000
0001FFC000
0003FFC000
0003FF8000
0007FF0000
000FFF0000
000FFE0000
001FFC0000
003FFC0000
003FF80000
007FF00000
00FFF00000
00FFE00000
01FFC00000
03FFC00000
03FF800000
07FF000000
0FFF000000
0FFE000000
1FFC000000
1FFC000000
3FF8000000
3FF0000000
7FF0000000
7FE0000000
FFE0000000
FFFFFFFF00
FFFFFFFF80
FFFFFFFFC0
FFFFFFFFC0
7FFFFFFFE0
7FFFFFFFE0
3FFFFFFFC0
1FFFFFFFC0
0FFFFFFF80
03FFFFFF00
ENDCHAR
STARTCHAR 005B
ENCODING 91
SWIDTH 309 0
DWIDTH 26 0
BBX 22 59 2 0
BITMAP
03FFF0
0FFFF8
1FFFFC
3FFFFC
7FFFFC
7FFFFC
FFFFFC
FFFFFC
FFFFF8
FFFFF0
FFC000
FFC000
FFC000
FFC000
FFC000
FFC000
FFC000
FFC000
FFC000
FFC000
FFC000
FFC000
FFC000
FFC000
FFC000
FFC000
FFC000
FFC000
FFC000
FFC000
FFC000
FFC000
FFC000
FFC000
FFC000
FFC000
FFC000
FFC000
FFC000
FFC000
FFC000
FFC000
FFC000
FFC000
FFC000
FFC000
FFC000
FFC000
FFC000
FFFFF0
FFFFF8
FFFFFC
FFFFFC
7FFFFC
7FFFFC
3FFFFC
1FFFFC
0FFFF8
03FFF0
ENDCHAR
STARTCHAR 005C
ENCODING 92
SWIDTH 464 0
DWIDTH 39 0
BBX 35 59 2 0
BITMAP
1E00000000
7F80000000
7F80000000
FFC0000000
FFC0000000
FFC0000000
FFC0000000
FFC0000000
FFE0000000
7FE0000000
7FF0000000
7FF0000000
3FF8000000
3FF8000000
1FFC000000
1FFC000000
0FFE000000
0FFF000000
07FF000000
07FF800000
03FF800000
03FFC00000
01FFE00000
00FFE00000
00FFF00000
007FF80000
003FF80000
003FFC0000
001FFE0000
000FFF0000
000FFF0000
0007FF8000
0003FFC000
0003FFC000
0001FFE000
0001FFE000
0000FFF000
00007FF800
00007FF800
00003FFC00
00001FFC00
00001FFE00
00000FFE00
000007FF00
000007FF00
000003FF80
000003FF80
000001FFC0
000001FFC0
000000FFC0
000000FFE0
000000FFE0
0000007FE0
0000007FE0
0000007FE0
0000007FE0
0000003FC0
0000003FC0
0000000F00
ENDCHAR
STARTCHAR 005D
ENCODING 93
SWIDTH 309 0
DWIDTH 26 0
BBX 22 59 2 0
BITMAP
3FFF00
7FFFC0
FFFFE0
FFFFF0
FFFFF8
FFFFF8
FFFFFC
FFFFFC
7FFFFC
3FFFFC
000FFC
000FFC
000FFC
000FFC
000FFC
000FFC
000FFC
000FFC
000FFC
000FFC
000FFC
000FFC
000FFC
000FFC
000FFC
000FFC
000FFC
000FFC
000FFC
000FFC
000FFC
000FFC
000FFC
000FFC
000FFC
000FFC
000FFC
000FFC
000FFC
000FFC
000FFC
000FFC
000FFC
000FFC
000FFC
000FFC
000FFC
000FFC
000FFC
3FFFFC
7FFFFC
FFFFFC
FFFFFC
FFFFF8
FFFFF8
FFFFF0
FFFFE0
7FFFC0
3FFF00
ENDCHAR
STARTCHAR 005E
ENCODING 94
SWIDTH 464 0
DWIDTH 39 0
BBX 35 22 2 37
BITMAP
0001E00000
0003F80000
0007FC0000
000FFC0000
003FFF0000
00FFFFC000
01FFFFF000
07FFFFF800
0FFFFFFE00
1FFFFFFF00
3FFFFFFF00
7FFFFFFF80
7FFF1FFFC0
7FFC07FFC0
FFF001FFC0
FFC000FFC0
FFC0007FE0
FFC0007FE0
FFC0007FC0
7F80003FC0
7F00003F80
1E00000F00
ENDCHAR
STARTCHAR 005F
ENCODING 95
SWIDTH 464 0
DWIDTH 39 0
BBX 34 10 2 -12
BITMAP
1FFFFFFF00
7FFFFFFF80
7FFFFFFFC0
FFFFFFFFC0
FFFFFFFFC0
FFFFFFFFC0
FFFFFFFFC0
7FFFFFFFC0
7FFFFFFF80
1FFFFFFF00
ENDCHAR
STARTCHAR 0060
ENCODING 96
SWIDTH 166 0
DWIDTH 14 0
BBX 10 22 2 37
BITMAP
1E00
7F80
7F80
FFC0
FFC0
FFC0
FFC0
FFC0
FFC0
FFC0
FFC0
FFC0
FFC0
FFC0
FFC0
FFC0
FFC0
FFC0
FFC0
7F80
7F80
1E00
ENDCHAR
STARTCHAR 0061
ENCODING 97
SWIDTH 464 0
DWIDTH 39 0
BBX 35 34 2 0
BITMAP
0001FF8000
0003FFF000
0007FFFC00
0007FFFE00
0007FFFF00
0007FFFF00
0007FFFF80
0007FFFF80
0003FFFFC0
0001FFFFC0
000000FFC0
0000007FC0
03FFFFFFE0
0FFFFFFFE0
1FFFFFFFC0
3FFFFFFFC0
7FFFFFFFC0
7FFFFFFFC0
FFFFFFFFC0
FFFFFFFFC0
FFFFFFFFE0
FFFFFFFFE0
FFC0007FE0
FFE0007FE0
FFFFFFFFE0
7FFFFFFFE0
7FFFFFFFC0
3FFFFFFFC0
3FFFFFFFC0
1FFFFFFFC0
0FFFFFFF80
07FFFFFF00
01FFFFFE00
007FFFF800
ENDCHAR
STARTCHAR 0062
ENCODING 98
SWIDTH 464 0
DWIDTH 39 0
BBX 35 59 2 0
BITMAP
1E00000000
7F80000000
7F80000000
FFC0000000
FFC0000000
FFC0000000
FFC0000000
FFC0000000
FFC0000000
FFC0000000
FFC0000000
FFC0000000
FFC0000000
FFC0000000
FFC0000000
FFC0000000
FFC0000000
FFC0000000
FFC0000000
FFC0000000
FFC0000000
FFC0000000
FFC0000000
FFC0000000
FFC0000000
FFFFFC0000
FFFFFF8000
FFFFFFE000
7FFFFFF800
7FFFFFFC00
7FFFFFFE00
FFFFFFFF00
FFFFFFFF00
FFFFFFFF80
FFFFFFFFC0
FFC00FFFC0
FFC003FFC0
FFC000FFE0
FFC000FFE0
FFC0007FE0
FFC0007FE0
FFC0007FE0
FFC0007FE0
FFC0007FE0
FFC0007FE0
FFC000FFE0
FFC000FFE0
FFC001FFC0
FFC007FFC0
FFFFFFFFC0
FFFFFFFF80
FFFFFFFF00
FFFFFFFF00
7FFFFFFE00
7FFFFFFC00
3FFFFFF800
1FFFFFE000
0FFFFF8000
03FFFC0000
ENDCHAR
STARTCHAR 0063
ENCODING 99
SWIDTH 464 0
DWIDTH 39 0
BBX 35 34 2 0
BITMAP
0007FFFF00
003FFFFF80
00FFFFFFC0
01FFFFFFE0
07FFFFFFE0
0FFFFFFFE0
1FFFFFFFE0
1FFFFFFFC0
3FFFFFFF80
3FFFFFFF00
7FFC000000
7FF8000000
FFE0000000
FFE0000000
FFC0000000
FFC0000000
FFC0000000
FFC0000000
FFC0000000
FFC0000000
FFE0000000
FFE0000000
7FF8000000
7FFC000000
7FFFFFFF00
3FFFFFFF80
1FFFFFFFC0
1FFFFFFFE0
0FFFFFFFE0
07FFFFFFE0
01FFFFFFE0
00FFFFFFC0
003FFFFF80
0007FFFF00
ENDCHAR
STARTCHAR 0064
ENCODING 100
SWIDTH 464 0
DWIDTH 39 0
BBX 35 59 2 0
BITMAP
0000000F00
0000003FC0
0000003FC0
0000007FE0
0000007FE0
0000007FE0
0000007FE0
0000007FE0
0000007FE0
0000007FE0
0000007FE0
0000007FE0
0000007FE0
0000007FE0
0000007FE0
0000007FE0
0000007FE0
0000007FE0
0000007FE0
0000007FE0
0000007FE0
0000007FE0
0000007FE0
0000007FE0
0000007FE0
0007FFFFE0
003FFFFFE0
00FFFFFFE0
03FFFFFFC0
07FFFFFFC0
0FFFFFFFC0
1FFFFFFFE0
1FFFFFFFE0
3FFFFFFFE0
7FFFFFFFE0
7FFC007FE0
7FF0007FE0
FFE0007FE0
FFE0007FE0
FFC0007FE0
FFC0007FE0
FFC0007FE0
FFC0007FE0
FFC0007FE0
FFC0007FE0
FFE0007FE0
FFE0007FE0
7FF8007FE0
7FFC007FE0
7FFFFFFFE0
3FFFFFFFE0
1FFFFFFFE0
1FFFFFFFE0
0FFFFFFFC0
07FFFFFFC0
03FFFFFF80
00FFFFFF00
003FFFFE00
0007FFF800
ENDCHAR
STARTCHAR 0065
ENCODING 101
SWIDTH 464 0
DWIDTH 39 0
BBX 35 34 2 0
BITMAP
007FFF8000
01FFFFF000
07FFFFF800
0FFFFFFE00
1FFFFFFF00
3FFFFFFF00
3FFFFFFF80
7FFFFFFFC0
7FFFFFFFC0
7FFFFFFFC0
FFE000FFC0
FFC0007FC0
FFFFFFFFE0
FFFFFFFFE0
FFFFFFFFC0
FFFFFFFFC0
7FFFFFFFC0
7FFFFFFF80
7FFFFFFF80
FFFFFFFF00
FFFFFFFE00
FFFFFFF800
FFC0000000
FFE0000000
FFFFE00000
7FFFF80000
7FFFFC0000
3FFFFC0000
3FFFFC0000
1FFFFC0000
0FFFFC0000
07FFFC0000
01FFF80000
007FE00000
ENDCHAR
STARTCHAR 0066
ENCODING 102
SWIDTH 464 0
DWIDTH 39 0
BBX 35 59 2 0
BITMAP
0007FFFF00
003FFFFF80
00FFFFFFC0
01FFFFFFE0
07FFFFFFE0
0FFFFFFFE0
0FFFFFFFE0
1FFFFFFFC0
3FFFFFFF80
3FFFFFFF00
7FFC000000
7FF8000000
7FF0000000
FFE0000000
FFC0000000
FFC0000000
FFC0000000
FFC0000000
FFC0000000
FFC0000000
FFC0000000
FFC0000000
FFC0000000
FFC0000000
FFC0000000
FFFFF00000
FFFFF80000
FFFFFC0000
7FFFFC0000
7FFFFC0000
7FFFFC0000
FFFFFC0000
FFFFFC0000
FFFFF80000
FFFFF00000
FFC0000000
FFC0000000
FFC0000000
FFC0000000
FFC0000000
FFC0000000
FFC0000000
FFC0000000
FFC0000000
FFC0000000
FFC0000000
FFC0000000
FFC0000000
FFC0000000
FFC0000000
FFC0000000
FFC0000000
FFC0000000
FFC0000000
FFC0000000
FFC0000000
7F80000000
7F80000000
1E00000000
ENDCHAR
STARTCHAR 0067
ENCODING 103
SWIDTH 464 0
DWIDTH 39 0
BBX 35 46 2 -12
BITMAP
0007FFF800
003FFFFE00
00FFFFFF00
01FFFFFF80
07FFFFFFC0
0FFFFFFFC0
1FFFFFFFE0
1FFFFFFFE0
3FFFFFFFE0
3FFFFFFFE0
7FFC007FE0
7FF0007FE0
FFE0007FE0
FFE0007FE0
FFC0007FE0
FFC0007FE0
FFC0007FE0
FFC0007FE0
FFC0007FE0
FFC0007FE0
FFE0007FE0
FFE0007FE0
7FF8007FE0
7FFC007FE0
7FFFFFFFE0
3FFFFFFFE0
3FFFFFFFE0
1FFFFFFFC0
0FFFFFFFC0
07FFFFFFC0
03FFFFFFC0
00FFFFFFC0
003FFFFFE0
0007FFFFE0
0000007FE0
000000FFC0
0001FFFFC0
0003FFFFC0
0007FFFF80
0007FFFF80
0007FFFF00
000FFFFF00
0007FFFE00
0007FFFC00
0003FFF000
0001FF8000
ENDCHAR
STARTCHAR 0068
ENCODING 104
SWIDTH 464 0
DWIDTH 39 0
BBX 35 59 2 0
BITMAP
1E00000000
7F80000000
7F80000000
FFC0000000
FFC0000000
FFC0000000
FFC0000000
FFC0000000
FFC0000000
FFC0000000
FFC0000000
FFC0000000
FFC0000000
FFC0000000
FFC0000000
FFC0000000
FFC0000000
FFC0000000
FFC0000000
FFC0000000
FFC0000000
FFC0000000
FFC0000000
FFC0000000
FFC0000000
FFFFFC0000
FFFFFF8000
FFFFFFE000
7FFFFFF800
7FFFFFFC00
7FFFFFFE00
FFFFFFFF00
FFFFFFFF00
FFFFFFFF80
FFFFFFFFC0
FFC00FFFC0
FFC003FFC0
FFC001FFE0
FFC000FFE0
FFC0007FE0
FFC0007FE0
FFC0007FE0
FFC0007FE0
FFC0007FE0
FFC0007FE0
FFC0007FE0
FFC0007FE0
FFC0007FE0
FFC0007FE0
FFC0007FE0
FFC0007FE0
FFC0007FE0
FFC0007FE0
FFC0007FE0
FFC0007FE0
FFC0007FE0
7F80007FC0
7F80003FC0
1E00000F00
ENDCHAR
STARTCHAR 0069
ENCODING 105
SWIDTH 166 0
DWIDTH 14 0
BBX 10 47 2 0
BITMAP
1E00
7F80
7F80
FFC0
FFC0
FFC0
FFC0
7F80
7F80
1E00
0000
0000
0000
1E00
7F80
7F80
FFC0
FFC0
FFC0
FFC0
FFC0
FFC0
FFC0
FFC0
FFC0
FFC0
FFC0
FFC0
FFC0
FFC0
FFC0
FFC0
FFC0
FFC0
FFC0
FFC0
FFC0
FFC0
FFC0
FFC0
FFC0
FFC0
FFC0
FFC0
7F80
7F80
1E00
ENDCHAR
STARTCHAR 006A
ENCODING 106
SWIDTH 309 0
DWIDTH 26 0
BBX 22 59 2 -12
BITMAP
0001E0
0007F8
0007F8
000FFC
000FFC
000FFC
000FFC
0007F8
0007F8
0001E0
000000
000000
000000
0001E0
0003F0
0007F8
000FFC
000FFC
000FFC
000FFC
000FFC
000FFC
000FFC
000FFC
000FFC
000FFC
000FFC
000FFC
000FFC
000FFC
000FFC
000FFC
000FFC
000FFC
000FFC
000FFC
000FFC
000FFC
000FFC
000FFC
000FFC
000FFC
000FFC
000FFC
000FFC
000FF8
001FF8
003FF8
007FF8
07FFF0
3FFFF0
7FFFE0
FFFFE0
FFFFC0
FFFF80
FFFF00
7FFC00
7FF000
1F8000
ENDCHAR
STARTCHAR 006B
ENCODING 107
SWIDTH 464 0
DWIDTH 39 0
BBX 35 59 2 0
BITMAP
1E00000000
7F80000000
7F80000000
FFC0000000
FFC0000000
FFC0000000
FFC0000000
FFC0000000
FFC0000000
FFC0000000
FFC0000000
FFC0000000
FFC0000000
FFC0001F80
FFC0003FC0
FFC0007FE0
FFC0007FE0
FFC0007FE0
FFC0007FE0
FFC0007FE0
FFC000FFE0
FFC000FFE0
FFC001FFC0
FFC003FFC0
FFC007FFC0
FFFFFFFF80
FFFFFFFF80
FFFFFFFF00
7FFFFFFE00
7FFFFFFC00
7FFFFFFE00
FFFFFFFF00
FFFFFFFF00
FFFFFFFF80
FFFFFFFFC0
FFC00FFFC0
FFC003FFC0
FFC001FFE0
FFC000FFE0
FFC0007FE0
FFC0007FE0
FFC0007FE0
FFC0007FE0
FFC0007FE0
FFC0007FE0
FFC0007FE0
FFC0007FE0
FFC0007FE0
FFC0007FE0
FFC0007FE0
FFC0007FE0
FFC0007FE0
FFC0007FE0
FFC0007FE0
FFC0007FE0
FFC0007FE0
7F80007FC0
7F80003FC0
1E00000F00
ENDCHAR
STARTCHAR 006C
ENCODING 108
SWIDTH 166 0
DWIDTH 14 0
BBX 10 59 2 0
BITMAP
1E00
7F80
7F80
FFC0
FFC0
FFC0
FFC0
FFC0
FFC0
FFC0
FFC0
FFC0
FFC0
FFC0
FFC0
FFC0
FFC0
FFC0
FFC0
FFC0
FFC0
FFC0
FFC0
FFC0
FFC0
FFC0
FFC0
FFC0
FFC0
FFC0
FFC0
FFC0
FFC0
FFC0
FFC0
FFC0
FFC0
FFC0
FFC0
FFC0
FFC0
FFC0
FFC0
FFC0
FFC0
FFC0
FFC0
FFC0
FFC0
FFC0
FFC0
FFC0
FFC0
FFC0
FFC0
FFC0
7F80
7F80
1E00
ENDCHAR
STARTCHAR 006D
ENCODING 109
SWIDTH 654 0
DWIDTH 55 0
BBX 51 34 2 0
BITMAP
0007FF1FFC0000
003FFFFFFF8000
00FFFFFFFFE000
03FFFFFFFFF800
07FFFFFFFFFC00
0FFFFFFFFFFE00
1FFFFFFFFFFF00
1FFFFFFFFFFF00
3FFFFFFFFFFF80
3FFFFFFFFFFFC0
7FFC07FE07FFC0
7FF807FE01FFC0
7FE007FE00FFE0
FFE007FE00FFE0
FFC007FE007FE0
FFC007FE007FE0
FFC007FE007FE0
FFC007FE007FE0
FFC007FE007FE0
FFC007FE007FE0
FFC007FE007FE0
FFC007FE007FE0
FFC007FE007FE0
FFC007FE007FE0
FFC007FE007FE0
FFC007FE007FE0
FFC007FE007FE0
FFC007FE007FE0
FFC007FE007FE0
FFC007FE007FE0
FFC007FE007FE0
7F8007FC007FC0
7F8003FC003FC0
1E0000F0000F00
ENDCHAR
STARTCHAR 006E
ENCODING 110
SWIDTH 464 0
DWIDTH 39 0
BBX 35 34 2 0
BITMAP
0007FC0000
003FFF8000
00FFFFE000
03FFFFF800
07FFFFFC00
0FFFFFFE00
0FFFFFFF00
1FFFFFFF00
3FFFFFFF80
3FFFFFFF80
7FFC07FFC0
7FF803FFC0
7FF001FFC0
FFE000FFE0
FFC0007FE0
FFC0007FE0
FFC0007FE0
FFC0007FE0
FFC0007FE0
FFC0007FE0
FFC0007FE0
FFC0007FE0
FFC0007FE0
FFC0007FE0
FFC0007FE0
FFC0007FE0
FFC0007FE0
FFC0007FE0
FFC0007FE0
FFC0007FE0
FFC0007FE0
7F80007FC0
7F80003FC0
1E00000F00
ENDCHAR
STARTCHAR 006F
ENCODING 111
SWIDTH 464 0
DWIDTH 39 0
BBX 35 34 2 0
BITMAP
0007FC0000
003FFF8000
00FFFFE000
03FFFFF000
07FFFFF800
0FFFFFFC00
0FFFFFFE00
1FFFFFFF00
3FFFFFFF00
3FFFFFFF80
7FFC07FF80
7FF003FFC0
7FE000FFC0
FFE000FFC0
FFC0007FC0
FFC0007FC0
FFC0007FE0
FFC0007FE0
FFC0007FC0
FFC0007FC0
FFE000FFC0
7FE001FFC0
7FF003FFC0
7FFC07FF80
3FFFFFFF80
3FFFFFFF00
1FFFFFFF00
1FFFFFFE00
0FFFFFFC00
07FFFFF800
03FFFFF000
00FFFFE000
003FFF8000
0007FC0000
ENDCHAR
STARTCHAR 0070
ENCODING 112
SWIDTH 464 0
DWIDTH 39 0
BBX 35 46 2 -12
BITMAP
03FFFC0000
0FFFFF8000
1FFFFFE000
3FFFFFF800
7FFFFFFC00
7FFFFFFE00
FFFFFFFF00
FFFFFFFF00
FFFFFFFF80
FFFFFFFF80
FFC00FFFC0
FFC003FFC0
FFC000FFC0
FFC000FFE0
FFC0007FE0
FFC0007FE0
FFC0007FE0
FFC0007FE0
FFC0007FE0
FFC0007FE0
FFC000FFE0
FFC000FFE0
FFC001FFC0
FFC007FFC0
FFFFFFFFC0
FFFFFFFF80
FFFFFFFF00
FFFFFFFF00
7FFFFFFE00
7FFFFFFC00
FFFFFFF800
FFFFFFE000
FFFFFF8000
FFFFFC0000
FFC0000000
FFC0000000
FFC0000000
FFC0000000
FFC0000000
FFC0000000
FFC0000000
FFC0000000
FFC0000000
7F80000000
7F80000000
1E00000000
ENDCHAR
STARTCHAR 0071
ENCODING 113
SWIDTH 464 0
DWIDTH 39 0
BBX 35 46 2 -12
BITMAP
0007FFF800
003FFFFE00
00FFFFFF00
01FFFFFF80
07FFFFFFC0
0FFFFFFFC0
1FFFFFFFE0
1FFFFFFFE0
3FFFFFFFE0
3FFFFFFFE0
7FFC007FE0
7FF0007FE0
FFE0007FE0
FFE0007FE0
FFC0007FE0
FFC0007FE0
FFC0007FE0
FFC0007FE0
FFC0007FE0
FFC0007FE0
FFE0007FE0
FFE0007FE0
7FF8007FE0
7FFC007FE0
7FFFFFFFE0
3FFFFFFFE0
3FFFFFFFE0
1FFFFFFFE0
0FFFFFFFC0
07FFFFFFC0
03FFFFFFE0
00FFFFFFE0
003FFFFFE0
0007FFFFE0
0000007FE0
0000007FE0
0000007FE0
0000007FE0
0000007FE0
0000007FE0
0000007FE0
0000007FE0
0000007FE0
0000003FC0
0000003FC0
0000000F00
ENDCHAR
STARTCHAR 0072
ENCODING 114
SWIDTH 464 0
DWIDTH 39 0
BBX 35 34 2 0
BITMAP
0007FFFF00
003FFFFF80
00FFFFFFC0
01FFFFFFE0
07FFFFFFE0
0FFFFFFFE0
0FFFFFFFE0
1FFFFFFFC0
3FFFFFFF80
3FFFFFFF00
7FFC000000
7FF8000000
7FF0000000
FFE0000000
FFC0000000
FFC0000000
FFC0000000
FFC0000000
FFC0000000
FFC0000000
FFC0000000
FFC0000000
FFC0000000
FFC0000000
FFC0000000
FFC0000000
FFC0000000
FFC0000000
FFC0000000
FFC0000000
FFC0000000
7F80000000
7F80000000
1E00000000
ENDCHAR
STARTCHAR 0073
ENCODING 115
SWIDTH 464 0
DWIDTH 39 0
BBX 35 34 2 0
BITMAP
003FFFFF00
01FFFFFF80
07FFFFFFC0
0FFFFFFFC0
1FFFFFFFE0
3FFFFFFFE0
3FFFFFFFC0
7FFFFFFFC0
7FFFFFFF80
FFFFFFFF00
FFE0000000
FFC0000000
FFFFFFF800
FFFFFFFE00
FFFFFFFF00
FFFFFFFF80
7FFFFFFF80
7FFFFFFFC0
3FFFFFFFC0
1FFFFFFFC0
0FFFFFFFE0
03FFFFFFE0
0000007FC0
000000FFC0
1FFFFFFFC0
3FFFFFFFC0
7FFFFFFF80
FFFFFFFF80
FFFFFFFF00
FFFFFFFF00
FFFFFFFE00
7FFFFFFC00
7FFFFFF000
1FFFFF8000
ENDCHAR
STARTCHAR 0074
ENCODING 116
SWIDTH 464 0
DWIDTH 39 0
BBX 34 47 2 0
BITMAP
0001E00000
0007F80000
0007F80000
000FFC0000
000FFC0000
000FFC0000
000FFC0000
000FFC0000
000FFC0000
000FFC0000
000FFC0000
000FFC0000
000FFC0000
3FFFFFFF00
7FFFFFFF80
FFFFFFFFC0
FFFFFFFFC0
FFFFFFFFC0
FFFFFFFFC0
FFFFFFFFC0
FFFFFFFFC0
7FFFFFFF80
3FFFFFFF00
000FFC0000
000FFC0000
000FFC0000
000FFC0000
000FFC0000
000FFC0000
000FFC0000
000FFC0000
000FFC0000
000FFC0000
000FFC0000
000FFC0000
000FFC0000
000FFC0000
000FFC0000
000FFC0000
000FFC0000
000FFC0000
000FFC0000
000FFC0000
000FFC0000
000FF80000
0007F80000
0001E00000
ENDCHAR
STARTCHAR 0075
ENCODING 117
SWIDTH 464 0
DWIDTH 39 0
BBX 35 34 2 0
BITMAP
1E00000F00
7F80003FC0
7F80003FC0
FFC0007FE0
FFC0007FE0
FFC0007FE0
FFC0007FE0
FFC0007FE0
FFC0007FE0
FFC0007FE0
FFC0007FE0
FFC0007FE0
FFC0007FE0
FFC0007FE0
FFC0007FE0
FFC0007FE0
FFC0007FE0
FFC0007FE0
FFC0007FE0
FFC0007FE0
FFE000FFE0
7FF001FFC0
7FF003FFC0
7FFC07FFC0
3FFFFFFF80
3FFFFFFF80
1FFFFFFF00
1FFFFFFF00
0FFFFFFE00
07FFFFFC00
03FFFFF800
00FFFFE000
003FFF8000
0007FC0000
ENDCHAR
STARTCHAR 0076
ENCODING 118
SWIDTH 464 0
DWIDTH 39 0
BBX 35 34 2 0
BITMAP
1E00000F00
7F80003FC0
7F80003FC0
FFC0007FE0
FFC0007FE0
FFC0007FE0
FFC0007FE0
FFC0007FE0
FFC0007FE0
FFC0007FE0
FFC0007FE0
FFE000FFC0
7FE000FFC0
7FE000FFC0
7FE000FFC0
7FF001FFC0
3FF001FF80
3FF803FF80
3FF807FF80
1FFC07FF00
1FFE0FFF00
0FFF3FFE00
0FFFFFFE00
07FFFFFC00
03FFFFF800
01FFFFF000
00FFFFE000
007FFFC000
003FFF8000
001FFF0000
0007FC0000
0007FC0000
0003F80000
0001F00000
ENDCHAR
STARTCHAR 0077
ENCODING 119
SWIDTH 654 0
DWIDTH 55 0
BBX 51 34 2 0
BITMAP
1E0000F0000F00
7F8003FC003FC0
7F8003FC003FC0
FFC007FE007FE0
FFC007FE007FE0
FFC007FE007FE0
FFC007FE007FE0
FFC007FE007FE0
FFC007FE007FE0
FFC007FE007FE0
FFC007FE007FE0
FFC007FE007FE0
FFC007FE007FE0
FFC007FE007FE0
FFC007FE007FE0
FFC007FE007FE0
FFC007FE007FE0
FFC007FE007FE0
FFC007FE007FE0
FFC007FE007FE0
FFE007FE00FFE0
7FF007FE00FFE0
7FF007FE01FFC0
7FFC07FE07FFC0
3FFFFFFFFFFFC0
3FFFFFFFFFFF80
1FFFFFFFFFFF00
1FFFFFFFFFFF00
0FFFFFFFFFFE00
07FFFFFFFFFC00
03FFFFFFFFF800
00FFFFFFFFE000
003FFFFFFF8000
0007FF3FFC0000
ENDCHAR
STARTCHAR 0078
ENCODING 120
SWIDTH 464 0
DWIDTH 39 0
BBX 35 34 2 0
BITMAP
1E00000F00
7F80003FC0
7F80007FC0
FFC0007FE0
FFC0007FE0
FFC0007FE0
FFC0007FE0
FFC0007FE0
FFE000FFE0
7FE001FFC0
7FF003FFC0
7FFC07FFC0
3FFFFFFF80
3FFFFFFF80
1FFFFFFF00
0FFFFFFE00
0FFFFFFE00
07FFFFFE00
0FFFFFFE00
1FFFFFFF00
3FFFFFFF80
3FFFFFFF80
7FFC07FFC0
7FF803FFC0
7FF001FFC0
FFE000FFE0
FFC0007FE0
FFC0007FE0
FFC0007FE0
FFC0007FE0
FFC0007FE0
7FC0007FC0
7F80003FC0
1E00000F00
ENDCHAR
STARTCHAR 0079
ENCODING 121
SWIDTH 464 0
DWIDTH 39 0
BBX 35 46 2 -12
BITMAP
1E00000F00
7F80003FC0
7F80003FC0
FFC0007FE0
FFC0007FE0
FFC0007FE0
FFC0007FE0
FFC0007FE0
FFC0007FE0
FFC0007FE0
FFC0007FE0
FFC0007FE0
FFC0007FE0
FFC0007FE0
FFC0007FE0
FFC0007FE0
FFC0007FE0
FFC0007FE0
FFC0007FE0
FFC0007FE0
FFE0007FE0
7FF0007FE0
7FF0007FE0
7FFC007FE0
3FFFFFFFE0
3FFFFFFFE0
1FFFFFFFE0
1FFFFFFFC0
0FFFFFFFC0
07FFFFFFC0
03FFFFFFC0
00FFFFFFC0
003FFFFFE0
0007FFFFE0
0000007FE0
000000FFC0
0001FFFFC0
0003FFFFC0
0007FFFF80
0007FFFF80
0007FFFF00
000FFFFF00
0007FFFE00
0007FFFC00
0003FFF000
0001FF8000
ENDCHAR
STARTCHAR 007A
ENCODING 122
SWIDTH 464 0
DWIDTH 39 0
BBX 35 34 2 0
BITMAP
1FFFFFF800
3FFFFFFE00
7FFFFFFF00
FFFFFFFF80
FFFFFFFFC0
FFFFFFFFC0
FFFFFFFFC0
7FFFFFFFC0
7FFFFFFFE0
1FFFFFFFC0
000007FFC0
00001FFF80
00007FFF80
0001FFFF00
000FFFFC00
001FFFF800
007FFFE000
01FFFFC000
07FFFF0000
0FFFFC0000
1FFFF00000
3FFFC00000
7FFF000000
FFFC000000
FFFFFFFF00
FFFFFFFF80
FFFFFFFFC0
FFFFFFFFC0
7FFFFFFFE0
7FFFFFFFE0
3FFFFFFFC0
1FFFFFFFC0
0FFFFFFF80
03FFFFFF00
ENDCHAR
STARTCHAR 007B
ENCODING 123
SWIDTH 357 0
DWIDTH 30 0
BBX 26 59 2 0
BITMAP
00007F00
0003FF80
000FFFC0
001FFFC0
007FFFC0
00FFFFC0
01FFFFC0
01FFFF80
03FFFF80
03FFFC00
07FF8000
07FF0000
0FFE0000
0FFE0000
0FFC0000
0FFC0000
0FFC0000
0FFC0000
0FFC0000
0FFC0000
0FFC0000
0FFC0000
0FFC0000
0FFC0000
0FFC0000
3FFC0000
7FFC0000
FFFC0000
FFF80000
FFF80000
FFF80000
FFFC0000
7FFC0000
3FFC0000
0FFC0000
0FFC0000
0FFC0000
0FFC0000
0FFC0000
0FFC0000
0FFC0000
0FFC0000
0FFC0000
0FFC0000
0FFC0000
0FFE0000
0FFE0000
07FF0000
07FFC000
03FFFC00
03FFFF80
01FFFFC0
01FFFFC0
00FFFFC0
007FFFC0
001FFFC0
000FFFC0
0003FF80
00007F00
ENDCHAR
STARTCHAR 007C
ENCODING 124
SWIDTH 166 0
DWIDTH 14 0
BBX 10 84 2 -12
BITMAP
1E00
7F80
7F80
FFC0
FFC0
FFC0
FFC0
FFC0
FFC0
FFC0
FFC0
FFC0
FFC0
FFC0
FFC0
FFC0
FFC0
FFC0
FFC0
FFC0
FFC0
FFC0
FFC0
FFC0
FFC0
FFC0
FFC0
FFC0
FFC0
FFC0
FFC0
FFC0
FFC0
FFC0
FFC0
FFC0
FFC0
FFC0
FFC0
FFC0
FFC0
FFC0
FFC0
FFC0
FFC0
FFC0
FFC0
FFC0
FFC0
FFC0
FFC0
FFC0
FFC0
FFC0
FFC0
FFC0
FFC0
FFC0
FFC0
FFC0
FFC0
FFC0
FFC0
FFC0
FFC0
FFC0
FFC0
FFC0
FFC0
FFC0
FFC0
FFC0
FFC0
FFC0
FFC0
FFC0
FFC0
FFC0
FFC0
FFC0
FFC0
7F80
7F80
1E00
ENDCHAR
STARTCHAR 007D
ENCODING 125
SWIDTH 357 0
DWIDTH 30 0
BBX 26 59 2 0
BITMAP
1F800000
7FF00000
7FFC0000
FFFF0000
FFFF8000
FFFFC000
FFFFE000
7FFFE000
3FFFF000
0FFFF000
007FF800
003FF800
001FF800
000FFC00
000FFC00
000FFC00
000FFC00
000FFC00
000FFC00
000FFC00
000FFC00
000FFC00
000FFC00
000FFC00
000FFC00
000FFF00
000FFF80
000FFFC0
0007FFC0
0007FFC0
0007FFC0
000FFFC0
000FFF80
000FFF00
000FFC00
000FFC00
000FFC00
000FFC00
000FFC00
000FFC00
000FFC00
000FFC00
000FFC00
000FFC00
000FFC00
000FFC00
001FF800
003FF800
007FF800
0FFFF000
3FFFF000
7FFFE000
FFFFE000
FFFFC000
FFFF8000
FFFF0000
FFFC0000
7FF00000
3F800000
ENDCHAR
STARTCHAR 007E
ENCODING 126
SWIDTH 464 0
DWIDTH 39 0
BBX 35 18 2 21
BITMAP
007F000F00
01FFE03F80
07FFF03FC0
0FFFF87FE0
1FFFF87FE0
3FFFFC7FE0
3FFFFC7FE0
7FFFFCFFE0
7FFFFFFFC0
FFFFFFFFC0
FFE7FFFFC0
FFC7FFFF80
FFC7FFFF80
FFC3FFFF00
FFC3FFFE00
7F81FFFC00
7F807FF000
1E001F8000
ENDCHAR
STARTCHAR 00C6
ENCODING 198
SWIDTH 654 0
DWIDTH 55 0
BBX 52 59 2 0
BITMAP
0007FF9FFFFF80
003FFFFFFFFFC0
00FFFFFFFFFFE0
01FFFFFFFFFFE0
07FFFFFFFFFFF0
0FFFFFFFFFFFF0
0FFFFFFFFFFFE0
1FFFFFFFFFFFE0
3FFFFFFFFFFFC0
3FFFFFFFFFFF80
7FFC07FE000000
7FF807FE000000
7FF007FE000000
FFE007FE000000
FFC007FE000000
FFC007FE000000
FFC007FE000000
FFC007FE000000
FFC007FE000000
FFC007FE000000
FFC007FE000000
FFC007FE000000
FFC007FE000000
FFC007FE000000
FFC007FE000000
FFFFFFFFFF8000
FFFFFFFFFFC000
FFFFFFFFFFE000
7FFFFFFFFFE000
7FFFFFFFFFE000
7FFFFFFFFFE000
FFFFFFFFFFE000
FFFFFFFFFFE000
FFFFFFFFFFC000
FFFFFFFFFF8000
FFC007FE000000
FFC007FE000000
FFC007FE000000
FFC007FE000000
FFC007FE000000
FFC007FE000000
FFC007FE000000
FFC007FE000000
FFC007FE000000
FFC007FE000000
FFC007FE000000
FFC007FE000000
FFC007FE000000
FFC007FE000000
FFC007FFFFFF80
FFC007FFFFFFC0
FFC007FFFFFFE0
FFC007FFFFFFE0
FFC003FFFFFFF0
FFC003FFFFFFF0
FFC001FFFFFFE0
7F8000FFFFFFE0
7F80007FFFFFC0
1E00001FFFFF80
ENDCHAR
STARTCHAR 00E6
ENCODING 230
SWIDTH 654 0
DWIDTH 55 0
BBX 51 34 2 0
BITMAP
001FF803FFC000
003FFF1FFFF800
007FFFBFFFFC00
007FFFFFFFFE00
00FFFFFFFFFF00
00FFFFFFFFFF80
007FFFFFFFFFC0
007FFFFFFFFFC0
003FFFFFFFFFC0
001FFFFFFFFFE0
00000FFE00FFE0
000007FE007FE0
03FFFFFFFFFFE0
0FFFFFFFFFFFE0
1FFFFFFFFFFFE0
3FFFFFFFFFFFE0
7FFFFFFFFFFFC0
7FFFFFFFFFFFC0
FFFFFFFFFFFF80
FFFFFFFFFFFF00
FFFFFFFFFFFE00
FFFFFFFFFFF800
FFC007FE000000
FFE007FE000000
FFFFFFFFFF0000
7FFFFFFFFFC000
7FFFFFFFFFC000
3FFFFFFFFFE000
3FFFFFFFFFE000
1FFFFFFFFFE000
0FFFFFFFFFE000
07FFFFFFFFC000
01FFFFFFFF8000
007FFF03FF0000
ENDCHAR
STARTCHAR E000
ENCODING 57344
SWIDTH 0 0
DWIDTH 0 0
BBX 0 0 0 0
BITMAP
ENDCHAR
STARTCHAR E001
ENCODING 57345
SWIDTH 500 0
DWIDTH 42 0
BBX 0 0 0 0
BITMAP
ENDCHAR
ENDFONT
